<svg width="36" height="16" viewBox="0 0 36 16" fill="none" xmlns="http://www.w3.org/2000/svg">
<path d="M1 7.00195C0.447715 7.00195 0 7.44967 0 8.00195C0 8.55424 0.447715 9.00195 1 9.00195V7.00195ZM35.2071 8.70906C35.5976 8.31854 35.5976 7.68537 35.2071 7.29485L28.8431 0.930885C28.4526 0.540361 27.8195 0.540361 27.4289 0.930885C27.0384 1.32141 27.0384 1.95457 27.4289 2.3451L33.0858 8.00195L27.4289 13.6588C27.0384 14.0493 27.0384 14.6825 27.4289 15.073C27.8195 15.4635 28.4526 15.4635 28.8431 15.073L35.2071 8.70906ZM1 9.00195H34.5V7.00195H1V9.00195Z" fill="white"/>
</svg>
