<svg width="18" height="18" viewBox="0 0 18 18" fill="none" xmlns="http://www.w3.org/2000/svg">
<path d="M16.59 8.5008L9.45579 15.635C8.5818 16.509 7.39641 17 6.1604 17C4.92438 17 3.73899 16.509 2.865 15.635C1.991 14.761 1.5 13.5756 1.5 12.3396C1.5 11.1036 1.991 9.9182 2.865 9.04421L9.9992 1.91C10.5819 1.32734 11.3721 1 12.1961 1C13.0201 1 13.8104 1.32734 14.3931 1.91C14.9757 2.49266 15.3031 3.28292 15.3031 4.10693C15.3031 4.93094 14.9757 5.7212 14.3931 6.30386L7.2511 13.4381C6.95977 13.7294 6.56464 13.8931 6.15263 13.8931C5.74063 13.8931 5.3455 13.7294 5.05417 13.4381C4.76284 13.1467 4.59917 12.7516 4.59917 12.3396C4.59917 11.9276 4.76284 11.5325 5.05417 11.2411L11.645 4.6581" stroke="#8A91AA" stroke-width="1.11765" stroke-linecap="round" stroke-linejoin="round"/>
</svg>
