<svg width="23" height="23" viewBox="0 0 23 23" fill="none" xmlns="http://www.w3.org/2000/svg">
<path d="M13.2853 9.18653V16.1066C13.2853 18.8803 11.0367 21.1289 8.26292 21.1289V21.1289C5.48915 21.1289 3.24057 18.8803 3.24057 16.1065V8.79905C3.24057 8.41495 3.55195 8.10357 3.93605 8.10357V8.10357C4.32015 8.10357 4.63153 7.79219 4.63153 7.40809V6.91132C4.63153 6.25286 4.09774 5.71907 3.43928 5.71907H2.64444V5.71907C2.20547 5.71907 1.84961 6.07493 1.84961 6.5139V7.50745C1.84961 7.83668 2.1165 8.10357 2.44573 8.10357V8.10357M13.2853 9.18653L21.3429 1.12891M13.2853 9.18653L5.22765 1.12891" stroke="#BDC4DC" stroke-width="2" stroke-linecap="round"/>
</svg>
