<svg width="26" height="20" viewBox="0 0 26 20" fill="none" xmlns="http://www.w3.org/2000/svg">
<path d="M16 10C16 11.6592 14.6592 13 13 13C11.3408 13 10 11.6592 10 10C10 8.34078 11.3408 7 13 7C14.6592 7 16 8.34078 16 10Z" stroke="#BDC4DC" stroke-width="1.8" stroke-linecap="round" stroke-linejoin="round"/>
<path d="M13 19C17.3291 19 21.3638 16.7378 24.1722 12.8224C25.2759 11.2888 25.2759 8.71118 24.1722 7.17764C21.3638 3.26223 17.3291 1 13 1C8.67092 1 4.63618 3.26223 1.8278 7.17764C0.724067 8.71118 0.724067 11.2888 1.8278 12.8224C4.63618 16.7378 8.67092 19 13 19Z" stroke="#BDC4DC" stroke-width="1.8" stroke-linecap="round" stroke-linejoin="round"/>
</svg>
