<svg width="22" height="22" viewBox="0 0 22 22" fill="none" xmlns="http://www.w3.org/2000/svg">
<path d="M5.201 21.1816H0.84725V7.16114H5.201V21.1816ZM3.0215 5.24864C1.6295 5.24864 0.5 4.09514 0.5 2.70314C0.5 2.0344 0.765657 1.39304 1.23853 0.920171C1.7114 0.447298 2.35276 0.181641 3.0215 0.181641C3.69024 0.181641 4.3316 0.447298 4.80447 0.920171C5.27734 1.39304 5.543 2.0344 5.543 2.70314C5.543 4.09514 4.4135 5.24864 3.0215 5.24864ZM21.4955 21.1816H17.1515V14.3566C17.1515 12.7299 17.1185 10.6441 14.888 10.6441C12.6245 10.6441 12.2772 12.4111 12.2772 14.2396V21.1816H7.928V7.16114H12.1032V9.07364H12.164C12.7452 7.97189 14.165 6.80939 16.283 6.80939C20.6892 6.80939 21.4992 9.71114 21.4992 13.4799V21.1816H21.4955Z" fill="white"/>
</svg>
