<svg width="24" height="24" viewBox="0 0 24 24" fill="none" xmlns="http://www.w3.org/2000/svg">
<path d="M12.2054 2.25294C15.2786 2.25294 15.6426 2.26642 16.8512 2.32034C17.9745 2.36976 18.581 2.55847 18.9854 2.71573C19.5201 2.92241 19.9065 3.17402 20.3064 3.5739C20.7107 3.97828 20.9579 4.36019 21.1645 4.89487C21.3218 5.29924 21.5105 5.9103 21.5599 7.02907C21.6139 8.2422 21.6273 8.60614 21.6273 11.6749C21.6273 14.7482 21.6139 15.1121 21.5599 16.3207C21.5105 17.444 21.3218 18.0506 21.1645 18.4549C20.9579 18.9896 20.7063 19.376 20.3064 19.7759C19.902 20.1803 19.5201 20.4274 18.9854 20.6341C18.581 20.7913 17.97 20.98 16.8512 21.0295C15.6381 21.0834 15.2741 21.0969 12.2054 21.0969C9.13212 21.0969 8.76818 21.0834 7.55954 21.0295C6.43628 20.98 5.82971 20.7913 5.42534 20.6341C4.89066 20.4274 4.50426 20.1758 4.10438 19.7759C3.7 19.3715 3.45288 18.9896 3.2462 18.4549C3.08894 18.0506 2.90023 17.4395 2.85081 16.3207C2.79689 15.1076 2.78341 14.7437 2.78341 11.6749C2.78341 8.60165 2.79689 8.23771 2.85081 7.02907C2.90023 5.90581 3.08894 5.29924 3.2462 4.89487C3.45288 4.36019 3.70449 3.97379 4.10438 3.5739C4.50875 3.16953 4.89066 2.92241 5.42534 2.71573C5.82971 2.55847 6.44077 2.36976 7.55954 2.32034C8.76818 2.26642 9.13212 2.25294 12.2054 2.25294ZM12.2054 0.181641C9.08269 0.181641 8.6918 0.19512 7.46519 0.249037C6.24307 0.302953 5.40287 0.500648 4.67499 0.783711C3.91567 1.08025 3.27316 1.47115 2.63514 2.11366C1.99263 2.75167 1.60174 3.39418 1.3052 4.14902C1.02213 4.88139 0.824438 5.7171 0.770521 6.93921C0.716604 8.17031 0.703125 8.56121 0.703125 11.6839C0.703125 14.8066 0.716604 15.1975 0.770521 16.4241C0.824438 17.6462 1.02213 18.4864 1.3052 19.2143C1.60174 19.9736 1.99263 20.6161 2.63514 21.2541C3.27316 21.8921 3.91567 22.2875 4.6705 22.5796C5.40287 22.8626 6.23858 23.0603 7.4607 23.1142C8.6873 23.1682 9.0782 23.1816 12.2009 23.1816C15.3236 23.1816 15.7145 23.1682 16.9411 23.1142C18.1632 23.0603 19.0034 22.8626 19.7313 22.5796C20.4861 22.2875 21.1286 21.8921 21.7666 21.2541C22.4046 20.6161 22.8 19.9736 23.0921 19.2188C23.3751 18.4864 23.5728 17.6507 23.6267 16.4286C23.6807 15.202 23.6941 14.8111 23.6941 11.6884C23.6941 8.5657 23.6807 8.1748 23.6267 6.9482C23.5728 5.72608 23.3751 4.88588 23.0921 4.158C22.809 3.39418 22.4181 2.75167 21.7756 2.11366C21.1376 1.47564 20.4951 1.08025 19.7402 0.788204C19.0079 0.505141 18.1722 0.307446 16.9501 0.25353C15.719 0.19512 15.3281 0.181641 12.2054 0.181641Z" fill="white"/>
<path d="M12.2053 5.77539C8.94329 5.77539 6.29688 8.42181 6.29688 11.6838C6.29688 14.9457 8.94329 17.5922 12.2053 17.5922C15.4672 17.5922 18.1136 14.9457 18.1136 11.6838C18.1136 8.42181 15.4672 5.77539 12.2053 5.77539ZM12.2053 15.5164C10.089 15.5164 8.37267 13.8 8.37267 11.6838C8.37267 9.56754 10.089 7.85119 12.2053 7.85119C14.3215 7.85119 16.0378 9.56754 16.0378 11.6838C16.0378 13.8 14.3215 15.5164 12.2053 15.5164Z" fill="white"/>
<path d="M19.7275 5.54148C19.7275 6.3053 19.1074 6.92086 18.3481 6.92086C17.5843 6.92086 16.9688 6.30081 16.9688 5.54148C16.9688 4.77766 17.5888 4.16211 18.3481 4.16211C19.1074 4.16211 19.7275 4.78215 19.7275 5.54148Z" fill="white"/>
</svg>
