<svg width="18" height="17" viewBox="0 0 18 17" fill="none" xmlns="http://www.w3.org/2000/svg">
<path d="M0.667407 16.4687L1.79407 12.5099C1.05169 11.2929 0.661654 9.90887 0.664074 8.5C0.664074 4.09886 4.39491 0.53125 8.99741 0.53125C13.5999 0.53125 17.3307 4.09886 17.3307 8.5C17.3307 12.9011 13.5999 16.4687 8.99741 16.4687C7.52472 16.471 6.07795 16.0983 4.80574 15.389L0.667407 16.4687ZM5.98991 4.76106C5.88229 4.76745 5.77714 4.79456 5.68074 4.84075C5.59034 4.8897 5.50782 4.9509 5.43574 5.02244C5.33574 5.11248 5.27907 5.19058 5.21824 5.26628C4.91025 5.64957 4.74458 6.12007 4.74741 6.60344C4.74907 6.99391 4.85574 7.37402 5.02241 7.72942C5.36324 8.4482 5.92407 9.20922 6.66491 9.91445C6.84324 10.0842 7.01741 10.2547 7.20491 10.4133C8.1244 11.1874 9.22012 11.7457 10.4049 12.0437L10.8791 12.113C11.0332 12.121 11.1874 12.1098 11.3424 12.1027C11.5851 12.0907 11.8221 12.0279 12.0366 11.9186C12.1457 11.8648 12.2522 11.8063 12.3557 11.7433C12.3557 11.7433 12.3916 11.721 12.4599 11.6716C12.5724 11.5919 12.6416 11.5353 12.7349 11.4421C12.8041 11.3735 12.8641 11.293 12.9099 11.2014C12.9749 11.0715 13.0399 10.8237 13.0666 10.6173C13.0866 10.4595 13.0807 10.3735 13.0782 10.3201C13.0749 10.2348 13.0007 10.1463 12.9199 10.1089L12.4349 9.90091C12.4349 9.90091 11.7099 9.59889 11.2674 9.40605C11.2208 9.3866 11.1708 9.37552 11.1199 9.37337C11.0629 9.36777 11.0053 9.37391 10.9509 9.39137C10.8966 9.40882 10.8468 9.43719 10.8049 9.47458V9.47298C10.8007 9.47298 10.7449 9.51841 10.1424 10.2165C10.1078 10.2609 10.0602 10.2945 10.0056 10.3129C9.95096 10.3314 9.89184 10.3339 9.83574 10.3201C9.78144 10.3062 9.72825 10.2886 9.67657 10.2675C9.57324 10.226 9.53741 10.2101 9.46657 10.1806L9.46241 10.179C8.98566 9.97998 8.54426 9.71113 8.15407 9.38214C8.04907 9.29448 7.95157 9.19886 7.85157 9.10642C7.52372 8.80619 7.238 8.46654 7.00157 8.09598L6.95241 8.02028C6.91709 7.96941 6.88854 7.91454 6.86741 7.85692C6.83574 7.73978 6.91824 7.64575 6.91824 7.64575C6.91824 7.64575 7.12074 7.43378 7.21491 7.31903C7.29331 7.22366 7.36647 7.12445 7.43407 7.0218C7.53241 6.87039 7.56324 6.715 7.51157 6.59467C7.27824 6.04961 7.03657 5.50694 6.78824 4.96825C6.73907 4.86147 6.59324 4.78497 6.46074 4.76983C6.41574 4.76505 6.37074 4.76027 6.32574 4.75708C6.21383 4.75176 6.10169 4.75283 5.98991 4.76027V4.76106Z" fill="#25D366"/>
</svg>
