<svg width="23" height="23" viewBox="0 0 23 23" fill="none" xmlns="http://www.w3.org/2000/svg">
<path fill-rule="evenodd" clip-rule="evenodd" d="M1.61383 1.61383C0 3.22767 0 5.8259 0 11.0208V11.9792C0 17.1733 0 19.7723 1.61383 21.3862C3.22767 23 5.8259 23 11.0208 23H11.9792C17.1733 23 19.7723 23 21.3862 21.3862C23 19.7723 23 17.1741 23 11.9792V11.0208C23 5.82667 23 3.22767 21.3862 1.61383C19.7723 0 17.1741 0 11.9792 0H11.0208C5.82667 0 3.22767 0 1.61383 1.61383ZM4.55246 7.1875H6.22916C6.65772 7.1875 6.81872 7.37533 6.97972 7.83993C7.80006 10.2289 9.18312 12.3173 9.75122 12.3173C9.96512 12.3173 10.0625 12.2191 10.0625 11.6771V9.20767C10.0241 8.50469 9.77849 8.2006 9.59658 7.97538C9.48428 7.83634 9.39626 7.72736 9.39626 7.57313C9.39626 7.3853 9.55649 7.1875 9.82252 7.1875H12.4583C12.8141 7.1875 12.9375 7.37763 12.9375 7.8039V11.1266C12.9375 11.4816 13.0916 11.6066 13.1982 11.6066C13.4113 11.6066 13.5892 11.4816 13.9802 11.0906C15.1884 9.7405 16.041 7.66207 16.041 7.66207C16.1475 7.4129 16.3446 7.1875 16.7708 7.1875H18.4475C18.9551 7.1875 19.0624 7.44893 18.9551 7.8039C18.7419 8.7814 16.6988 11.6595 16.6988 11.6595C16.5209 11.9439 16.4496 12.0857 16.6988 12.4054C16.7867 12.5286 16.9743 12.7125 17.1888 12.9227C17.4081 13.1377 17.6556 13.3803 17.8534 13.6137C18.574 14.4241 19.1168 15.1079 19.2679 15.5787C19.4066 16.0517 19.1667 16.2917 18.6875 16.2917H17.01C16.5609 16.2917 16.335 16.0402 15.8463 15.4963C15.6393 15.2658 15.385 14.9827 15.0466 14.6441C14.0507 13.685 13.6252 13.5608 13.376 13.5608C13.0387 13.5608 12.9375 13.6566 12.9375 14.1358V15.64C12.9375 16.0517 12.8056 16.2917 11.7392 16.2917C9.96282 16.2917 8.01012 15.213 6.62476 13.2227C4.54556 10.3094 3.97746 8.10597 3.97746 7.66207C3.97746 7.4129 4.07329 7.1875 4.55246 7.1875Z" fill="#AFB4C6"/>
</svg>
