<svg width="23" height="24" viewBox="0 0 23 24" fill="none" xmlns="http://www.w3.org/2000/svg">
<path fill-rule="evenodd" clip-rule="evenodd" d="M1.61383 1.79547C0 3.40931 0 6.00754 0 11.2025V12.1608C0 17.355 0 19.954 1.61383 21.5678C3.22767 23.1816 5.8259 23.1816 11.0208 23.1816H11.9792C17.1733 23.1816 19.7723 23.1816 21.3862 21.5678C23 19.954 23 17.3557 23 12.1608V11.2025C23 6.00831 23 3.40931 21.3862 1.79547C19.7723 0.181641 17.1741 0.181641 11.9792 0.181641H11.0208C5.82667 0.181641 3.22767 0.181641 1.61383 1.79547ZM4.55246 7.36914H6.22916C6.65772 7.36914 6.81872 7.55697 6.97972 8.02157C7.80006 10.4105 9.18312 12.4989 9.75122 12.4989C9.96512 12.4989 10.0625 12.4008 10.0625 11.8587V9.38931C10.0241 8.68633 9.77849 8.38224 9.59658 8.15702C9.48428 8.01798 9.39626 7.909 9.39626 7.75477C9.39626 7.56694 9.55649 7.36914 9.82252 7.36914H12.4583C12.8141 7.36914 12.9375 7.55927 12.9375 7.98554V11.3083C12.9375 11.6632 13.0916 11.7882 13.1982 11.7882C13.4113 11.7882 13.5892 11.6632 13.9802 11.2722C15.1884 9.92214 16.041 7.84371 16.041 7.84371C16.1475 7.59454 16.3446 7.36914 16.7708 7.36914H18.4475C18.9551 7.36914 19.0624 7.63057 18.9551 7.98554C18.7419 8.96304 16.6988 11.8411 16.6988 11.8411C16.5209 12.1255 16.4496 12.2674 16.6988 12.5871C16.7867 12.7102 16.9743 12.8941 17.1888 13.1043C17.4081 13.3194 17.6556 13.562 17.8534 13.7953C18.574 14.6057 19.1168 15.2896 19.2679 15.7603C19.4066 16.2333 19.1667 16.4733 18.6875 16.4733H17.01C16.5609 16.4733 16.335 16.2218 15.8463 15.6779C15.6393 15.4474 15.385 15.1644 15.0466 14.8257C14.0507 13.8666 13.6252 13.7424 13.376 13.7424C13.0387 13.7424 12.9375 13.8383 12.9375 14.3174V15.8216C12.9375 16.2333 12.8056 16.4733 11.7392 16.4733C9.96282 16.4733 8.01012 15.3946 6.62476 13.4043C4.54556 10.491 3.97746 8.28761 3.97746 7.84371C3.97746 7.59454 4.07329 7.36914 4.55246 7.36914Z" fill="white"/>
</svg>
