<svg width="25" height="23" viewBox="0 0 25 23" fill="none" xmlns="http://www.w3.org/2000/svg">
<path d="M0.504827 23L2.13076 17.2868C1.0594 15.5306 0.496524 13.5332 0.500016 11.5C0.500016 5.14855 5.88412 0 12.5262 0C19.1682 0 24.5523 5.14855 24.5523 11.5C24.5523 17.8514 19.1682 23 12.5262 23C10.4009 23.0033 8.31298 22.4654 6.47701 21.4417L0.504827 23ZM8.18592 6.1042C8.03062 6.11342 7.87886 6.15253 7.73975 6.2192C7.60929 6.28984 7.4902 6.37815 7.38618 6.4814C7.24187 6.61135 7.16009 6.72405 7.0723 6.8333C6.62783 7.38644 6.38875 8.06543 6.39282 8.76299C6.39523 9.32649 6.54916 9.87504 6.78969 10.3879C7.28155 11.4252 8.09091 12.5235 9.16004 13.5412C9.4174 13.7862 9.66874 14.0323 9.93933 14.2611C11.2663 15.3783 12.8476 16.184 14.5574 16.614L15.2417 16.7141C15.4641 16.7256 15.6866 16.7095 15.9103 16.6991C16.2606 16.6819 16.6025 16.5912 16.9121 16.4335C17.0696 16.3559 17.2233 16.2715 17.3727 16.1805C17.3727 16.1805 17.4244 16.1483 17.523 16.077C17.6854 15.962 17.7852 15.8803 17.9199 15.7458C18.0197 15.6469 18.1063 15.5307 18.1724 15.3985C18.2662 15.211 18.36 14.8534 18.3985 14.5555C18.4274 14.3278 18.419 14.2036 18.4154 14.1266C18.4105 14.0035 18.3035 13.8759 18.1869 13.8218L17.4869 13.5217C17.4869 13.5217 16.4407 13.0858 15.8021 12.8075C15.7347 12.7795 15.6626 12.7635 15.5892 12.7604C15.5069 12.7523 15.4238 12.7612 15.3454 12.7864C15.267 12.8115 15.1951 12.8525 15.1346 12.9064V12.9041C15.1286 12.9041 15.048 12.9697 14.1785 13.9771C14.1286 14.0412 14.0599 14.0897 13.9811 14.1163C13.9023 14.1429 13.8169 14.1465 13.736 14.1266C13.6576 14.1066 13.5809 14.0812 13.5063 14.0507C13.3572 13.9909 13.3054 13.9679 13.2032 13.9253L13.1972 13.923C12.5092 13.6358 11.8722 13.2478 11.3091 12.773C11.1576 12.6465 11.0169 12.5085 10.8726 12.3751C10.3994 11.9419 9.98709 11.4517 9.64589 10.9169L9.57494 10.8077C9.52398 10.7343 9.48277 10.6551 9.45227 10.5719C9.40657 10.4029 9.52563 10.2672 9.52563 10.2672C9.52563 10.2672 9.81787 9.96129 9.95376 9.79569C10.0669 9.65806 10.1725 9.51489 10.27 9.36674C10.412 9.14824 10.4565 8.92399 10.3819 8.75034C10.0452 7.96375 9.6964 7.1806 9.33802 6.4032C9.26707 6.2491 9.05661 6.1387 8.8654 6.11685C8.80046 6.10995 8.73551 6.10305 8.67057 6.09845C8.50907 6.09077 8.34723 6.09231 8.18592 6.10305V6.1042Z" fill="#BDC4DC"/>
</svg>
