<svg width="30" height="23" viewBox="0 0 30 23" fill="none" xmlns="http://www.w3.org/2000/svg">
<path d="M9.89717 23C20.5763 23 26.419 14.1503 26.419 6.4782C26.419 6.22942 26.4134 5.9751 26.4024 5.72631C27.539 4.90436 28.5198 3.88625 29.2988 2.71983C28.2403 3.19079 27.1164 3.49837 25.9656 3.63206C27.1773 2.90573 28.0846 1.76469 28.5193 0.420471C27.3794 1.09605 26.1327 1.5726 24.8328 1.82972C23.9569 0.899082 22.7989 0.282888 21.5377 0.0764084C20.2765 -0.130071 18.9825 0.0846638 17.8556 0.687414C16.7287 1.29016 15.8317 2.24736 15.3034 3.411C14.775 4.57465 14.6448 5.87994 14.9327 7.12506C12.6244 7.00923 10.3663 6.40961 8.30472 5.36509C6.2431 4.32057 4.42401 2.85445 2.96536 1.06179C2.224 2.33999 1.99714 3.85251 2.33089 5.29196C2.66464 6.7314 3.53396 7.98976 4.76217 8.81129C3.84011 8.78202 2.93824 8.53376 2.13109 8.08704V8.15891C2.13026 9.50028 2.59399 10.8005 3.44344 11.8387C4.29289 12.8768 5.47563 13.5887 6.79063 13.8534C5.93648 14.0871 5.04002 14.1212 4.1706 13.9529C4.54167 15.1065 5.26363 16.1155 6.23572 16.839C7.20782 17.5625 8.38155 17.9645 9.5931 17.9888C7.53624 19.6045 4.99543 20.4809 2.37988 20.4767C1.91603 20.476 1.45264 20.4476 0.992188 20.3916C3.6493 22.0963 6.74024 23.0016 9.89717 23Z" fill="#AFB4C6"/>
</svg>
