<svg width="29" height="24" viewBox="0 0 29 24" fill="none" xmlns="http://www.w3.org/2000/svg">
<path d="M9.59834 23.1816C20.2775 23.1816 26.1201 14.3319 26.1201 6.65985C26.1201 6.41106 26.1146 6.15674 26.1036 5.90795C27.2401 5.086 28.221 4.06789 29 2.90147C27.9415 3.37243 26.8176 3.68001 25.6668 3.8137C26.8785 3.08737 27.7858 1.94633 28.2205 0.602111C27.0805 1.27769 25.8339 1.75425 24.534 2.01136C23.6581 1.08072 22.5001 0.464529 21.2389 0.258049C19.9777 0.0515693 18.6836 0.266304 17.5567 0.869054C16.4298 1.4718 15.5329 2.429 15.0045 3.59264C14.4762 4.75629 14.3459 6.06158 14.6338 7.3067C12.3256 7.19087 10.0675 6.59125 8.00589 5.54673C5.94427 4.50221 4.12518 3.03609 2.66653 1.24343C1.92517 2.52163 1.69831 4.03415 2.03206 5.4736C2.36582 6.91304 3.23513 8.1714 4.46334 8.99293C3.54128 8.96366 2.63941 8.7154 1.83226 8.26868V8.34055C1.83143 9.68192 2.29516 10.9822 3.14461 12.0203C3.99406 13.0584 5.17681 13.7704 6.4918 14.0351C5.63765 14.2688 4.74119 14.3028 3.87178 14.1346C4.24284 15.2882 4.9648 16.2971 5.9369 17.0206C6.90899 17.7442 8.08272 18.1461 9.29427 18.1705C7.23741 19.7862 4.6966 20.6625 2.08105 20.6584C1.6172 20.6577 1.15381 20.6292 0.693359 20.5732C3.35048 22.2779 6.44141 23.1833 9.59834 23.1816Z" fill="white"/>
</svg>
