<svg width="23" height="23" viewBox="0 0 23 23" fill="none" xmlns="http://www.w3.org/2000/svg">
<path d="M11.5022 2.0713C14.5755 2.0713 14.9394 2.08478 16.1481 2.1387C17.2713 2.18812 17.8779 2.37683 18.2823 2.53409C18.817 2.74077 19.2034 2.99238 19.6032 3.39226C20.0076 3.79664 20.2547 4.17855 20.4614 4.71323C20.6187 5.1176 20.8074 5.72866 20.8568 6.84743C20.9107 8.06056 20.9242 8.4245 20.9242 11.4933C20.9242 14.5665 20.9107 14.9305 20.8568 16.1391C20.8074 17.2624 20.6187 17.8689 20.4614 18.2733C20.2547 18.808 20.0031 19.1944 19.6032 19.5943C19.1989 19.9986 18.817 20.2458 18.2823 20.4524C17.8779 20.6097 17.2669 20.7984 16.1481 20.8478C14.9349 20.9017 14.571 20.9152 11.5022 20.9152C8.42899 20.9152 8.06505 20.9017 6.85642 20.8478C5.73315 20.7984 5.12659 20.6097 4.72221 20.4524C4.18754 20.2458 3.80113 19.9941 3.40125 19.5943C2.99687 19.1899 2.74976 18.808 2.54308 18.2733C2.38582 17.8689 2.19711 17.2579 2.14769 16.1391C2.09377 14.926 2.08029 14.562 2.08029 11.4933C2.08029 8.42 2.09377 8.05607 2.14769 6.84743C2.19711 5.72416 2.38582 5.1176 2.54308 4.71323C2.74976 4.17855 3.00137 3.79215 3.40125 3.39226C3.80563 2.98789 4.18754 2.74077 4.72221 2.53409C5.12659 2.37683 5.73765 2.18812 6.85642 2.1387C8.06505 2.08478 8.42899 2.0713 11.5022 2.0713ZM11.5022 0C8.37957 0 7.98867 0.0134792 6.76206 0.067396C5.53995 0.121313 4.69975 0.319008 3.97187 0.602071C3.21254 0.898613 2.57003 1.28951 1.93202 1.93202C1.28951 2.57003 0.898613 3.21254 0.602071 3.96738C0.319008 4.69975 0.121313 5.53546 0.067396 6.75757C0.0134792 7.98867 0 8.37957 0 11.5022C0 14.6249 0.0134792 15.0158 0.067396 16.2424C0.121313 17.4645 0.319008 18.3047 0.602071 19.0326C0.898613 19.792 1.28951 20.4345 1.93202 21.0725C2.57003 21.7105 3.21254 22.1059 3.96738 22.3979C4.69975 22.681 5.53546 22.8787 6.75757 22.9326C7.98418 22.9865 8.37507 23 11.4978 23C14.6204 23 15.0113 22.9865 16.2379 22.9326C17.4601 22.8787 18.3003 22.681 19.0281 22.3979C19.783 22.1059 20.4255 21.7105 21.0635 21.0725C21.7015 20.4345 22.0969 19.792 22.3889 19.0371C22.672 18.3047 22.8697 17.469 22.9236 16.2469C22.9775 15.0203 22.991 14.6294 22.991 11.5067C22.991 8.38406 22.9775 7.99316 22.9236 6.76656C22.8697 5.54444 22.672 4.70424 22.3889 3.97636C22.1059 3.21254 21.715 2.57003 21.0725 1.93202C20.4345 1.294 19.792 0.898613 19.0371 0.606564C18.3047 0.323501 17.469 0.125806 16.2469 0.0718891C15.0158 0.0134792 14.6249 0 11.5022 0Z" fill="#AFB4C6"/>
<path d="M11.5021 5.59375C8.24017 5.59375 5.59375 8.24017 5.59375 11.5021C5.59375 14.7641 8.24017 17.4105 11.5021 17.4105C14.7641 17.4105 17.4105 14.7641 17.4105 11.5021C17.4105 8.24017 14.7641 5.59375 11.5021 5.59375ZM11.5021 15.3347C9.3859 15.3347 7.66955 13.6184 7.66955 11.5021C7.66955 9.3859 9.3859 7.66955 11.5021 7.66955C13.6184 7.66955 15.3347 9.3859 15.3347 11.5021C15.3347 13.6184 13.6184 15.3347 11.5021 15.3347Z" fill="#AFB4C6"/>
<path d="M19.0244 5.35984C19.0244 6.12366 18.4043 6.73921 17.645 6.73921C16.8812 6.73921 16.2656 6.11917 16.2656 5.35984C16.2656 4.59602 16.8857 3.98047 17.645 3.98047C18.4043 3.98047 19.0244 4.60051 19.0244 5.35984Z" fill="#AFB4C6"/>
</svg>
