<svg width="22" height="22" viewBox="0 0 22 22" fill="none" xmlns="http://www.w3.org/2000/svg">
<path d="M10.998 7.33177C8.97819 7.33177 7.32986 8.98013 7.32986 11C7.32986 13.0199 8.97819 14.6682 10.998 14.6682C13.0178 14.6682 14.6662 13.0199 14.6662 11C14.6662 8.98013 13.0178 7.33177 10.998 7.33177ZM21.9997 11C21.9997 9.48097 22.0135 7.97571 21.9282 6.45943C21.8429 4.69824 21.4411 3.13519 20.1533 1.84732C18.8627 0.556694 17.3024 0.157674 15.5413 0.0723668C14.0223 -0.0129408 12.517 0.000818524 11.0008 0.000818524C9.48177 0.000818524 7.97653 -0.0129408 6.46029 0.0723668C4.69913 0.157674 3.1361 0.559446 1.84826 1.84732C0.55766 3.13794 0.158648 4.69824 0.073342 6.45943C-0.011964 7.97846 0.00179507 9.48373 0.00179507 11C0.00179507 12.5163 -0.011964 14.0243 0.073342 15.5406C0.158648 17.3018 0.560412 18.8648 1.84826 20.1527C3.13886 21.4433 4.69913 21.8423 6.46029 21.9276C7.97929 22.0129 9.48452 21.9992 11.0008 21.9992C12.5198 21.9992 14.025 22.0129 15.5413 21.9276C17.3024 21.8423 18.8654 21.4406 20.1533 20.1527C21.4439 18.8621 21.8429 17.3018 21.9282 15.5406C22.0163 14.0243 21.9997 12.519 21.9997 11ZM10.998 16.6441C7.87472 16.6441 5.35406 14.1234 5.35406 11C5.35406 7.87664 7.87472 5.35594 10.998 5.35594C14.1213 5.35594 16.642 7.87664 16.642 11C16.642 14.1234 14.1213 16.6441 10.998 16.6441ZM16.8731 6.44292C16.1439 6.44292 15.555 5.85402 15.555 5.12478C15.555 4.39554 16.1439 3.80664 16.8731 3.80664C17.6024 3.80664 18.1912 4.39554 18.1912 5.12478C18.1915 5.29794 18.1575 5.46945 18.0914 5.62947C18.0252 5.78949 17.9281 5.93489 17.8057 6.05733C17.6832 6.17978 17.5378 6.27686 17.3778 6.34303C17.2178 6.40919 17.0463 6.44314 16.8731 6.44292Z" fill="url(#paint0_linear_248_12741)"/>
<defs>
<linearGradient id="paint0_linear_248_12741" x1="11.001" y1="0" x2="11.001" y2="22" gradientUnits="userSpaceOnUse">
<stop stop-color="#AC49E9"/>
<stop offset="0.46875" stop-color="#EC2152"/>
<stop offset="1" stop-color="#E6DE22"/>
</linearGradient>
</defs>
</svg>
