<svg width="24" height="23" viewBox="0 0 24 23" fill="none" xmlns="http://www.w3.org/2000/svg">
<path d="M11.7044 2.0713C14.7777 2.0713 15.1416 2.08478 16.3502 2.1387C17.4735 2.18812 18.0801 2.37683 18.4844 2.53409C19.0191 2.74077 19.4055 2.99238 19.8054 3.39226C20.2098 3.79664 20.4569 4.17855 20.6636 4.71323C20.8208 5.1176 21.0095 5.72866 21.059 6.84743C21.1129 8.06056 21.1264 8.4245 21.1264 11.4933C21.1264 14.5665 21.1129 14.9305 21.059 16.1391C21.0095 17.2624 20.8208 17.8689 20.6636 18.2733C20.4569 18.808 20.2053 19.1944 19.8054 19.5943C19.401 19.9986 19.0191 20.2458 18.4844 20.4524C18.0801 20.6097 17.469 20.7984 16.3502 20.8478C15.1371 20.9017 14.7732 20.9152 11.7044 20.9152C8.63114 20.9152 8.2672 20.9017 7.05857 20.8478C5.9353 20.7984 5.32874 20.6097 4.92436 20.4524C4.38969 20.2458 4.00328 19.9941 3.6034 19.5943C3.19902 19.1899 2.9519 18.808 2.74522 18.2733C2.58797 17.8689 2.39926 17.2579 2.34983 16.1391C2.29592 14.926 2.28244 14.562 2.28244 11.4933C2.28244 8.42 2.29592 8.05607 2.34983 6.84743C2.39926 5.72416 2.58797 5.1176 2.74522 4.71323C2.9519 4.17855 3.20352 3.79215 3.6034 3.39226C4.00777 2.98789 4.38969 2.74077 4.92436 2.53409C5.32874 2.37683 5.93979 2.18812 7.05857 2.1387C8.2672 2.08478 8.63114 2.0713 11.7044 2.0713ZM11.7044 0C8.58172 0 8.19082 0.0134792 6.96421 0.067396C5.7421 0.121313 4.9019 0.319008 4.17402 0.602071C3.41469 0.898613 2.77218 1.28951 2.13417 1.93202C1.49166 2.57003 1.10076 3.21254 0.804219 3.96738C0.521156 4.69975 0.323461 5.53546 0.269544 6.75757C0.215628 7.98867 0.202148 8.37957 0.202148 11.5022C0.202148 14.6249 0.215628 15.0158 0.269544 16.2424C0.323461 17.4645 0.521156 18.3047 0.804219 19.0326C1.10076 19.792 1.49166 20.4345 2.13417 21.0725C2.77218 21.7105 3.41469 22.1059 4.16953 22.3979C4.9019 22.681 5.73761 22.8787 6.95972 22.9326C8.18633 22.9865 8.57722 23 11.6999 23C14.8226 23 15.2135 22.9865 16.4401 22.9326C17.6622 22.8787 18.5024 22.681 19.2303 22.3979C19.9851 22.1059 20.6276 21.7105 21.2656 21.0725C21.9037 20.4345 22.299 19.792 22.5911 19.0371C22.8742 18.3047 23.0719 17.469 23.1258 16.2469C23.1797 15.0203 23.1932 14.6294 23.1932 11.5067C23.1932 8.38406 23.1797 7.99316 23.1258 6.76656C23.0719 5.54444 22.8742 4.70424 22.5911 3.97636C22.308 3.21254 21.9171 2.57003 21.2746 1.93202C20.6366 1.294 19.9941 0.898613 19.2393 0.606564C18.5069 0.323501 17.6712 0.125806 16.4491 0.0718891C15.218 0.0134792 14.8271 0 11.7044 0Z" fill="#BDC4DC"/>
<path d="M11.7043 5.59375C8.44231 5.59375 5.7959 8.24017 5.7959 11.5021C5.7959 14.7641 8.44231 17.4105 11.7043 17.4105C14.9662 17.4105 17.6127 14.7641 17.6127 11.5021C17.6127 8.24017 14.9662 5.59375 11.7043 5.59375ZM11.7043 15.3347C9.58805 15.3347 7.87169 13.6184 7.87169 11.5021C7.87169 9.3859 9.58805 7.66955 11.7043 7.66955C13.8205 7.66955 15.5369 9.3859 15.5369 11.5021C15.5369 13.6184 13.8205 15.3347 11.7043 15.3347Z" fill="#BDC4DC"/>
<path d="M19.2255 5.36033C19.2255 6.12415 18.6055 6.7397 17.8462 6.7397C17.0823 6.7397 16.4668 6.11966 16.4668 5.36033C16.4668 4.59651 17.0868 3.98096 17.8462 3.98096C18.6055 3.98096 19.2255 4.601 19.2255 5.36033Z" fill="#BDC4DC"/>
</svg>
