<svg width="17" height="20" viewBox="0 0 17 20" fill="none" xmlns="http://www.w3.org/2000/svg">
<path d="M15.8182 6.48182C14.9591 2.70182 11.6618 1 8.76544 1C8.76544 1 8.76544 1 8.75725 1C5.86907 1 2.56362 2.69364 1.70453 6.47364C0.747255 10.6955 3.33271 14.2709 5.67271 16.5209C6.53998 17.3555 7.65271 18.3864 8.76544 18.3864C9.87816 18.3864 10.9909 17.3555 11.85 16.5209C14.19 14.2709 16.7754 10.7036 15.8182 6.48182ZM8.76544 10.5809C7.3418 10.5809 6.18816 9.42727 6.18816 8.00364C6.18816 6.58 7.3418 5.42636 8.76544 5.42636C10.1891 5.42636 11.3427 6.58 11.3427 8.00364C11.3427 9.42727 10.1891 10.5809 8.76544 10.5809Z" stroke="#BDC4DC" stroke-width="1.8"/>
</svg>
