<svg width="24" height="24" viewBox="0 0 24 24" fill="none" xmlns="http://www.w3.org/2000/svg">
<g clip-path="url(#clip0_248_12734)">
<path d="M6.20149 21H1.84774V6.9795H6.20149V21ZM4.02199 5.067C2.62999 5.067 1.50049 3.9135 1.50049 2.5215C1.50049 1.85276 1.76615 1.2114 2.23902 0.73853C2.71189 0.265657 3.35324 0 4.02199 0C4.69073 0 5.33208 0.265657 5.80496 0.73853C6.27783 1.2114 6.54349 1.85276 6.54349 2.5215C6.54349 3.9135 5.41399 5.067 4.02199 5.067ZM22.496 21H18.152V14.175C18.152 12.5483 18.119 10.4625 15.8885 10.4625C13.625 10.4625 13.2777 12.2295 13.2777 14.058V21H8.92849V6.9795H13.1037V8.892H13.1645C13.7457 7.79025 15.1655 6.62775 17.2835 6.62775C21.6897 6.62775 22.4997 9.5295 22.4997 13.2983V21H22.496Z" fill="#2292C9"/>
</g>
<defs>
<clipPath id="clip0_248_12734">
<rect width="24" height="24" fill="white" transform="translate(0.000488281)"/>
</clipPath>
</defs>
</svg>
