<svg width="15" height="18" viewBox="0 0 15 18" fill="none" xmlns="http://www.w3.org/2000/svg">
<path d="M14.3182 5.48182C13.4591 1.70182 10.1618 0 7.26544 0C7.26544 0 7.26544 0 7.25725 0C4.36907 0 1.06362 1.69364 0.204528 5.47364C-0.752745 9.69545 1.83271 13.2709 4.17271 15.5209C5.03998 16.3555 6.15271 17.3864 7.26544 17.3864C8.37816 17.3864 9.49089 16.3555 10.35 15.5209C12.69 13.2709 15.2754 9.70364 14.3182 5.48182ZM7.26544 9.58091C5.8418 9.58091 4.68816 8.42727 4.68816 7.00364C4.68816 5.58 5.8418 4.42636 7.26544 4.42636C8.68907 4.42636 9.84271 5.58 9.84271 7.00364C9.84271 8.42727 8.68907 9.58091 7.26544 9.58091Z" fill="#9EA6C4"/>
</svg>
