<svg width="36" height="36" viewBox="0 0 36 36" fill="none" xmlns="http://www.w3.org/2000/svg">
<path fill-rule="evenodd" clip-rule="evenodd" d="M18 16.4992C16.7595 16.4992 15.75 15.4897 15.75 14.2492C15.75 13.0087 16.7595 11.9993 18 11.9993C19.2405 11.9993 20.25 13.0087 20.25 14.2492C20.25 15.4897 19.2405 16.4992 18 16.4992ZM18 8.99925C15.105 8.99925 12.75 11.3543 12.75 14.2493C12.75 17.1442 15.105 19.4993 18 19.4993C20.895 19.4993 23.25 17.1442 23.25 14.2493C23.25 11.3543 20.895 8.99925 18 8.99925ZM18 29.469C15.4875 27.093 9 20.4225 9 14.883C9 9.9855 13.0365 6 18 6C22.9635 6 27 9.9855 27 14.883C27 20.4225 20.5125 27.093 18 29.469ZM18 3C11.3835 3 6 8.3295 6 14.883C6 23.0955 16.5735 32.2515 17.0235 32.637C17.3055 32.8785 17.652 33 18 33C18.348 33 18.6945 32.8785 18.9765 32.637C19.4265 32.2515 30 23.0955 30 14.883C30 8.3295 24.6165 3 18 3Z" fill="#231F20"/>
<mask id="mask0_279_15547" style="mask-type:alpha" maskUnits="userSpaceOnUse" x="6" y="3" width="24" height="30">
<path fill-rule="evenodd" clip-rule="evenodd" d="M18 16.4992C16.7595 16.4992 15.75 15.4897 15.75 14.2492C15.75 13.0087 16.7595 11.9993 18 11.9993C19.2405 11.9993 20.25 13.0087 20.25 14.2492C20.25 15.4897 19.2405 16.4992 18 16.4992ZM18 8.99925C15.105 8.99925 12.75 11.3543 12.75 14.2493C12.75 17.1442 15.105 19.4993 18 19.4993C20.895 19.4993 23.25 17.1442 23.25 14.2493C23.25 11.3543 20.895 8.99925 18 8.99925ZM18 29.469C15.4875 27.093 9 20.4225 9 14.883C9 9.9855 13.0365 6 18 6C22.9635 6 27 9.9855 27 14.883C27 20.4225 20.5125 27.093 18 29.469ZM18 3C11.3835 3 6 8.3295 6 14.883C6 23.0955 16.5735 32.2515 17.0235 32.637C17.3055 32.8785 17.652 33 18 33C18.348 33 18.6945 32.8785 18.9765 32.637C19.4265 32.2515 30 23.0955 30 14.883C30 8.3295 24.6165 3 18 3Z" fill="white"/>
</mask>
<g mask="url(#mask0_279_15547)">
<rect width="36" height="36" fill="#BDC4DC"/>
</g>
</svg>
