<svg width="32" height="30" viewBox="0 0 32 30" fill="none" xmlns="http://www.w3.org/2000/svg">
<path d="M31.9375 26.6875C31.9375 27.274 31.4615 27.75 30.875 27.75C29.5171 27.75 28.6331 28.192 27.611 28.7041C26.5145 29.2534 25.2724 29.875 23.4375 29.875C21.593 29.875 20.3456 29.2513 19.2449 28.7009C18.2249 28.1909 17.3441 27.75 16 27.75C14.6559 27.75 13.7751 28.1909 12.7551 28.7009C11.6544 29.2513 10.407 29.875 8.5625 29.875C6.72756 29.875 5.4855 29.2534 4.389 28.7041C3.36687 28.192 2.48288 27.75 1.125 27.75C0.5385 27.75 0.0625 27.274 0.0625 26.6875C0.0625 26.101 0.5385 25.625 1.125 25.625C2.98544 25.625 4.23706 26.2519 5.341 26.8044C6.35462 27.3112 7.23012 27.75 8.5625 27.75C9.9055 27.75 10.7852 27.3091 11.8053 26.8001C12.906 26.2487 14.1544 25.625 16 25.625C17.8456 25.625 19.094 26.2487 20.1947 26.8001C21.2148 27.3091 22.0945 27.75 23.4375 27.75C24.7699 27.75 25.6454 27.3112 26.659 26.8044C27.7629 26.2519 29.0146 25.625 30.875 25.625C31.4615 25.625 31.9375 26.101 31.9375 26.6875Z" fill="#BDC4DC"/>
<path d="M31.9375 21.375C31.9375 21.9615 31.4615 22.4375 30.875 22.4375C29.5171 22.4375 28.6331 22.8795 27.611 23.3916C26.5145 23.9409 25.2724 24.5625 23.4375 24.5625C21.593 24.5625 20.3456 23.9388 19.2449 23.3884C18.2249 22.8784 17.3441 22.4375 16 22.4375C14.6559 22.4375 13.7751 22.8784 12.7551 23.3884C11.6544 23.9388 10.407 24.5625 8.5625 24.5625C6.72756 24.5625 5.4855 23.9409 4.389 23.3916C3.36687 22.8795 2.48288 22.4375 1.125 22.4375C0.5385 22.4375 0.0625 21.9615 0.0625 21.375C0.0625 20.7885 0.5385 20.3125 1.125 20.3125C2.98544 20.3125 4.23706 20.9394 5.341 21.4919C6.35462 21.9987 7.23012 22.4375 8.5625 22.4375C9.9055 22.4375 10.7852 21.9966 11.8053 21.4876C12.906 20.9362 14.1544 20.3125 16 20.3125C17.8456 20.3125 19.094 20.9362 20.1947 21.4876C21.2148 21.9966 22.0945 22.4375 23.4375 22.4375C24.7699 22.4375 25.6454 21.9987 26.659 21.4919C27.7629 20.9394 29.0146 20.3125 30.875 20.3125C31.4615 20.3125 31.9375 20.7885 31.9375 21.375Z" fill="#BDC4DC"/>
<path d="M0.0625 16.0625C0.0625 15.476 0.5385 15 1.125 15C4.93725 15 6.37375 12.3066 8.19169 8.89594C10.2753 4.98806 12.8678 0.125 20.25 0.125C23.8838 0.125 26.625 2.40831 26.625 5.4375C26.625 7.86212 24.6912 9.6875 23.4375 9.6875C22.851 9.6875 22.375 9.2115 22.375 8.625C22.375 8.32325 22.3059 7.89613 21.7078 7.673C20.913 7.37762 19.791 7.64538 19.2608 8.25738C18.0294 9.68006 17.7893 12.0303 18.6775 13.9726C19.5891 15.9679 21.4697 17.1133 23.837 17.1133C24.9919 17.1133 25.8037 16.6915 26.7429 16.2027C27.8256 15.6396 29.0549 15 30.875 15C31.4615 15 31.9375 15.476 31.9375 16.0625C31.9375 16.649 31.4615 17.125 30.875 17.125C29.5734 17.125 28.716 17.5713 27.7226 18.0876C26.6856 18.6274 25.5104 19.2383 23.8359 19.2383C20.6017 19.2383 18.0166 17.6414 16.7438 14.8555C15.5028 12.1398 15.8682 8.92887 17.6532 6.86656C18.7625 5.58625 20.8259 5.07731 22.4494 5.68188C23.1304 5.93581 23.6659 6.364 24.0187 6.91438C24.2779 6.55419 24.5 6.05587 24.5 5.4375C24.5 3.62063 22.6725 2.25 20.25 2.25C14.1427 2.25 12.1633 5.96344 10.067 9.89575C8.17256 13.4498 6.21331 17.125 1.125 17.125C0.5385 17.125 0.0625 16.649 0.0625 16.0625Z" fill="#BDC4DC"/>
</svg>
