<svg width="34" height="26" viewBox="0 0 34 26" fill="none" xmlns="http://www.w3.org/2000/svg">
<path d="M33.0039 17.9805C32.4547 17.9805 32.0078 17.5336 32.0078 16.9844C32.0078 10.5997 27.8641 4.8991 21.8342 2.8431L21.977 1.12962C22.0001 0.852039 21.906 0.577449 21.7174 0.372453C21.5288 0.167457 21.2629 0.0507812 20.9844 0.0507812H13.0156C12.7371 0.0507812 12.4712 0.167457 12.2826 0.372387C12.094 0.577383 11.9999 0.851973 12.023 1.12955L12.1658 2.84303C6.13587 4.8991 1.99219 10.5997 1.99219 16.9844C1.99219 17.5336 1.54534 17.9805 0.996094 17.9805C0.445984 17.9805 0 18.4265 0 18.9766V20.9688C0 21.3473 0.214492 21.693 0.553563 21.8611C0.890176 22.0281 8.89107 25.9492 17 25.9492C25.1089 25.9492 33.1098 22.0281 33.4464 21.8611C33.7855 21.693 34 21.3473 34 20.9688V18.9766C34 18.4265 33.554 17.9805 33.0039 17.9805ZM3.98438 16.9844C3.98438 13.1427 5.71778 9.58652 8.52829 7.17451L9.02076 13.0827C9.06618 13.6274 9.54424 14.0384 10.0961 13.9926C10.6443 13.9469 11.0517 13.4654 11.006 12.9172L10.415 5.82633C11.0237 5.46847 11.6659 5.15762 12.3371 4.8995L13.019 13.0827C13.0647 13.6309 13.5457 14.038 14.0944 13.9926C14.6426 13.947 15.05 13.4655 15.0044 12.9173C14.798 10.4407 14.2944 4.39813 14.0982 2.0423H19.9018C19.7053 4.40059 19.2016 10.4448 18.9956 12.9173C18.9474 13.4963 19.4036 13.9961 19.9894 13.9961C20.5021 13.9961 20.9376 13.6028 20.981 13.0827L21.6629 4.8995C22.3341 5.15762 22.9763 5.4684 23.585 5.82633L22.994 12.9172C22.9483 13.4654 23.3557 13.9469 23.9039 13.9926C24.4501 14.0381 24.9334 13.6327 24.9792 13.0827L25.4717 7.17451C28.2822 9.58652 30.0156 13.1427 30.0156 16.9844C30.0156 17.3336 30.0764 17.6687 30.187 17.9805H3.81305C3.92361 17.6687 3.98438 17.3335 3.98438 16.9844ZM32.0078 20.3344C30.0866 21.2021 23.4754 23.957 17 23.957C10.5357 23.957 3.91505 21.2012 1.99219 20.334V19.9727H32.0078V20.3344Z" fill="#BDC4DC"/>
</svg>
