<svg width="36" height="36" viewBox="0 0 36 36" fill="none" xmlns="http://www.w3.org/2000/svg">
<path d="M10.275 24V11.93H12.978V24H10.275ZM15.5211 24V11.93H19.6351C21.3351 11.93 22.7858 12.5193 23.9871 13.698C25.1884 14.8767 25.7891 16.299 25.7891 17.965C25.7891 19.631 25.1884 21.0533 23.9871 22.232C22.7858 23.4107 21.3351 24 19.6351 24H15.5211ZM18.2241 21.518H19.6351C20.6324 21.518 21.4484 21.178 22.0831 20.498C22.7291 19.8067 23.0521 18.9623 23.0521 17.965C23.0521 16.9677 22.7291 16.129 22.0831 15.449C21.4484 14.7577 20.6324 14.412 19.6351 14.412H18.2241V21.518Z" fill="#BDC4DC"/>
<circle cx="18" cy="18" r="16.65" stroke="#BDC4DC" stroke-width="2.7"/>
</svg>
