<svg width="32" height="32" viewBox="0 0 32 32" fill="none" xmlns="http://www.w3.org/2000/svg">
<path d="M15.95 1C9.45 1 3.9 5.2 1.85 11H30.15C28.05 5.2 22.5 1 15.95 1Z" fill="white"/>
<path d="M15.95 31C22.5 31 28.05 26.8 30.1 21H1.85C3.9 26.85 9.45 31 15.95 31Z" fill="#EC1C24"/>
<path d="M1.85 11C1.3 12.55 1 14.25 1 16C1 17.75 1.3 19.45 1.85 21H30.15C30.7 19.45 31 17.75 31 16C31 14.25 30.7 12.55 30.15 11H1.85Z" fill="#1E50A0"/>
<rect x="0.5" y="0.5" width="31" height="31" rx="15.5" stroke="black" stroke-opacity="0.5"/>
</svg>
