<svg width="32" height="32" viewBox="0 0 32 32" fill="none" xmlns="http://www.w3.org/2000/svg">
<path d="M16 31C24.2843 31 31 24.2843 31 16C31 7.71573 24.2843 1 16 1C7.71573 1 1 7.71573 1 16C1 24.2843 7.71573 31 16 31Z" fill="#61B2E4"/>
<path d="M16 31.5C24.5604 31.5 31.5 24.5604 31.5 16C31.5 7.43959 24.5604 0.5 16 0.5C7.43959 0.5 0.5 7.43959 0.5 16C0.5 24.5604 7.43959 31.5 16 31.5Z" stroke="black" stroke-opacity="0.5"/>
<path d="M28.3507 16.5496C28.0007 16.3496 27.6007 16.5996 27.6007 16.9496C27.4507 19.3996 23.1507 20.0496 21.1007 20.0496C19.0507 20.0996 14.6507 19.3496 14.5007 16.9496C14.5007 16.5996 14.1007 16.3996 13.7507 16.5496C12.7007 17.0996 12.3507 18.1496 12.6007 19.1996C13.0507 21.0996 15.4007 22.4496 17.4007 23.0496C17.2507 23.3996 17.2007 23.7496 17.1507 24.0996C17.1007 24.4996 17.7007 24.6496 18.0007 24.3996C19.1507 23.5496 20.9507 23.1996 22.4507 23.1996C23.1007 23.1996 23.1007 22.2996 22.4507 22.2996C21.1007 22.2996 19.6507 22.5496 18.4507 23.0996C18.9007 22.0496 19.9507 20.9996 21.1007 20.9496H21.1507C23.5507 20.9996 27.4007 20.1496 28.4007 17.8996C28.5507 18.2996 28.5507 18.7496 28.4007 19.1496C27.9007 20.7496 26.1507 21.3996 24.5007 21.8496C23.9007 21.9996 24.1507 22.8996 24.7507 22.6996C26.8507 22.1496 28.5007 21.2996 29.3507 19.3996C29.7507 18.3996 29.3507 17.1996 28.3507 16.5496ZM17.8007 22.1996C16.1507 21.7496 14.9007 20.9496 13.9007 19.6496C13.5007 19.0996 13.3507 18.3496 13.7007 17.7996C14.4507 19.5496 16.9007 20.4496 19.1007 20.7496C18.6007 21.1496 18.1507 21.6496 17.8007 22.1996Z" fill="#FFE62E"/>
<path d="M21.0004 17.3494C23.1267 17.3494 24.8504 15.6257 24.8504 13.4994C24.8504 11.3731 23.1267 9.64941 21.0004 9.64941C18.8741 9.64941 17.1504 11.3731 17.1504 13.4994C17.1504 15.6257 18.8741 17.3494 21.0004 17.3494Z" fill="#FFE62E"/>
<path d="M21.0012 9.1498C21.2512 9.1498 21.3012 8.9998 21.3012 8.8498C21.3012 8.5998 21.0012 7.5498 21.0012 7.5498C21.0012 7.5498 20.7012 8.6498 20.7012 8.8498C20.7012 8.9998 20.7512 9.1498 21.0012 9.1498Z" fill="#FFE62E"/>
<path d="M22.6496 9.45039C22.8496 9.55039 22.9996 9.45039 23.0496 9.30039C23.1496 9.10039 23.2496 7.95039 23.2496 7.95039C23.2496 7.95039 22.5496 8.85039 22.4496 9.05039C22.4496 9.20039 22.4496 9.40039 22.6496 9.45039ZM25.0496 15.1504C24.9496 15.3504 25.0496 15.5004 25.1996 15.5504C25.3996 15.6504 26.5496 15.7504 26.5496 15.7504C26.5496 15.7504 25.6496 15.0504 25.4496 14.9504C25.2996 14.9504 25.0996 14.9504 25.0496 15.1504ZM19.3496 17.5504C19.1496 17.4504 18.9996 17.5504 18.9496 17.7004C18.8496 17.9004 18.7496 19.0504 18.7496 19.0504C18.7496 19.0504 19.4496 18.1504 19.5496 17.9504C19.5496 17.8004 19.5496 17.6004 19.3496 17.5504ZM16.9496 11.8504C17.0496 11.6504 16.9496 11.5004 16.7996 11.4504C16.5996 11.3504 15.4496 11.2504 15.4496 11.2504C15.4496 11.2504 16.3496 11.9504 16.5496 12.0504C16.6996 12.0504 16.8996 12.0504 16.9496 11.8504ZM24.0996 10.4004C24.2496 10.5504 24.4496 10.5004 24.5496 10.4004C24.6996 10.2504 25.2496 9.25039 25.2496 9.25039C25.2496 9.25039 24.2496 9.80039 24.0996 9.95039C23.9496 10.1004 23.9496 10.2504 24.0996 10.4004ZM24.0996 16.6004C23.9496 16.7504 23.9996 16.9004 24.0996 17.0504C24.2496 17.2004 25.2496 17.7504 25.2496 17.7504C25.2496 17.7504 24.6996 16.7504 24.5496 16.6004C24.3996 16.4504 24.2496 16.4504 24.0996 16.6004ZM17.8996 16.6004C17.7496 16.4504 17.5496 16.5004 17.4496 16.6004C17.2996 16.7504 16.7496 17.7504 16.7496 17.7504C16.7496 17.7504 17.7496 17.2004 17.8996 17.0504C18.0496 16.9004 18.0496 16.7504 17.8996 16.6004ZM17.8996 10.4004C18.0496 10.2504 17.9996 10.0504 17.8996 9.95039C17.7496 9.80039 16.7496 9.25039 16.7496 9.25039C16.7496 9.25039 17.2996 10.2504 17.4496 10.4004C17.5996 10.5504 17.7496 10.5504 17.8996 10.4004ZM25.0496 11.8504C25.1496 12.0504 25.2996 12.1004 25.4496 12.0004C25.6496 11.9004 26.5496 11.2004 26.5496 11.2004C26.5496 11.2004 25.3996 11.3504 25.1996 11.4004C25.0496 11.5004 24.9496 11.6004 25.0496 11.8504ZM22.6496 17.5504C22.4496 17.6504 22.3996 17.8004 22.4996 17.9504C22.5996 18.1504 23.2996 19.0504 23.2996 19.0504C23.2996 19.0504 23.1496 17.9004 23.0996 17.7004C22.9996 17.5504 22.8996 17.4504 22.6496 17.5504ZM16.9496 15.1504C16.8496 14.9504 16.6996 14.9004 16.5496 15.0004C16.3496 15.1004 15.4496 15.8004 15.4496 15.8004C15.4496 15.8004 16.5996 15.6504 16.7996 15.6004C16.9496 15.5004 17.0496 15.4004 16.9496 15.1504ZM19.3496 9.45039C19.5496 9.35039 19.5996 9.20039 19.4996 9.05039C19.3996 8.85039 18.6996 7.95039 18.6996 7.95039C18.6996 7.95039 18.8496 9.05039 18.8996 9.30039C18.9996 9.45039 19.0996 9.55039 19.3496 9.45039ZM21.8496 9.20039C22.0496 9.25039 22.1996 9.10039 22.1996 8.95039C22.2496 8.75039 22.1496 7.60039 22.1496 7.60039C22.1496 7.60039 21.6496 8.60039 21.5996 8.85039C21.5496 9.00039 21.6496 9.15039 21.8496 9.20039ZM25.2996 14.3504C25.2496 14.5504 25.3996 14.7004 25.5496 14.7004C25.7496 14.7504 26.8996 14.6504 26.8996 14.6504C26.8996 14.6504 25.8996 14.1504 25.6496 14.1004C25.4996 14.0504 25.3496 14.1504 25.2996 14.3504ZM20.1496 17.8004C19.9496 17.7504 19.7996 17.9004 19.7996 18.0504C19.7496 18.2504 19.8496 19.4004 19.8496 19.4004C19.8496 19.4004 20.3496 18.4004 20.3996 18.1504C20.4496 18.0004 20.3496 17.8504 20.1496 17.8004ZM16.6996 12.6504C16.7496 12.4004 16.5996 12.3004 16.4496 12.3004C16.2496 12.2504 15.0996 12.3504 15.0996 12.3504C15.0996 12.3504 16.0996 12.8504 16.3496 12.9004C16.4996 12.9504 16.6496 12.8504 16.6996 12.6504ZM23.4496 9.85039C23.6496 9.95039 23.7996 9.90039 23.8996 9.75039C24.0496 9.55039 24.3496 8.50039 24.3496 8.50039C24.3496 8.50039 23.4996 9.25039 23.3496 9.40039C23.2496 9.55039 23.2496 9.75039 23.4496 9.85039ZM24.6496 15.9504C24.5496 16.1504 24.5996 16.3004 24.7496 16.4004C24.9496 16.5504 25.9996 16.8504 25.9996 16.8504C25.9996 16.8504 25.2496 16.0004 25.0996 15.8504C24.9496 15.7504 24.7496 15.7504 24.6496 15.9504ZM18.5496 17.1504C18.3496 17.0504 18.1996 17.1004 18.0996 17.2504C17.9996 17.4004 17.6496 18.5004 17.6496 18.5004C17.6496 18.5004 18.4996 17.7504 18.6496 17.6004C18.7496 17.4504 18.7496 17.2504 18.5496 17.1504ZM17.3496 11.0504C17.4496 10.8504 17.3996 10.7004 17.2496 10.6004C17.0996 10.5004 15.9996 10.1504 15.9996 10.1504C15.9996 10.1504 16.7496 11.0004 16.8996 11.1504C17.0496 11.2504 17.2496 11.2504 17.3496 11.0504ZM24.6496 11.0504C24.7996 11.2504 24.9496 11.2504 25.0996 11.1504C25.2996 11.0004 25.9996 10.1504 25.9996 10.1504C25.9996 10.1504 24.8996 10.5004 24.7496 10.6004C24.5996 10.7504 24.4996 10.9004 24.6496 11.0504ZM23.4496 17.1504C23.2496 17.3004 23.2496 17.4504 23.3496 17.6004C23.4996 17.8004 24.3496 18.5004 24.3496 18.5004C24.3496 18.5004 23.9996 17.4004 23.8996 17.2504C23.7496 17.1004 23.5996 17.0004 23.4496 17.1504ZM17.3496 15.9504C17.1996 15.7504 17.0496 15.7504 16.8996 15.8504C16.6996 16.0004 15.9996 16.8504 15.9996 16.8504C15.9996 16.8504 17.0996 16.5004 17.2496 16.4004C17.3996 16.2504 17.4996 16.1004 17.3496 15.9504ZM18.5496 9.85039C18.7496 9.70039 18.7496 9.55039 18.6496 9.40039C18.4996 9.20039 17.6496 8.50039 17.6496 8.50039C17.6496 8.50039 17.9996 9.60039 18.0996 9.75039C18.2496 9.90039 18.3996 10.0004 18.5496 9.85039ZM25.2996 12.6504C25.3496 12.8504 25.4996 12.9504 25.6496 12.9004C25.8496 12.8504 26.8996 12.3504 26.8996 12.3504C26.8996 12.3504 25.7496 12.2504 25.5496 12.3004C25.3496 12.3004 25.2496 12.4004 25.2996 12.6504ZM21.8496 17.8004C21.6496 17.8504 21.5496 18.0004 21.5996 18.1504C21.6496 18.3504 22.1496 19.4004 22.1496 19.4004C22.1496 19.4004 22.2496 18.2504 22.1996 18.0504C22.1996 17.8504 22.0996 17.7504 21.8496 17.8004ZM16.6996 14.3504C16.6496 14.1504 16.4996 14.0504 16.3496 14.1004C16.1496 14.1504 15.0996 14.6504 15.0996 14.6504C15.0996 14.6504 16.2496 14.7504 16.4496 14.7004C16.6496 14.7004 16.7496 14.6004 16.6996 14.3504ZM20.1496 9.20039C20.3496 9.15039 20.4496 9.00039 20.3996 8.85039C20.3496 8.65039 19.8496 7.60039 19.8496 7.60039C19.8496 7.60039 19.7496 8.75039 19.7996 8.95039C19.7996 9.15039 19.8996 9.25039 20.1496 9.20039ZM8.24961 25.8004H7.69961V27.6504H6.59961C7.14961 28.1004 7.69961 28.4504 8.29961 28.8504V25.8004H8.24961ZM7.69961 4.35039V6.20039H8.24961V3.15039C7.64961 3.50039 7.09961 3.90039 6.54961 4.35039H7.69961ZM6.44961 4.40039C6.29961 4.50039 6.14961 4.65039 5.99961 4.80039L7.49961 8.05039H6.24961V6.20039H5.69961V8.05039H4.44961L5.89961 4.90039C5.49961 5.25039 5.09961 5.65039 4.74961 6.10039L3.59961 8.55039L5.54961 12.7504H4.29961V10.9004H3.74961V15.8004H4.29961V13.7504H5.59961L4.84961 16.0004L5.59961 18.2004H4.29961V16.1504H3.74961V21.0504H4.29961V19.2004H5.54961L3.59961 23.4004L4.74961 25.8504C5.09961 26.2504 5.49961 26.6504 5.89961 27.0504L4.44961 23.9004H5.69961V25.7504H6.24961V23.9004H7.49961L5.99961 27.1504C6.14961 27.3004 6.29961 27.4004 6.44961 27.5504L8.34961 23.4004L6.39961 19.2004H7.64961V21.0504H8.19961V16.1504H7.64961V18.2004H6.34961L7.09961 16.0004L6.34961 13.8004H7.64961V15.8504H8.19961V10.9504H7.64961V12.8004H6.39961L8.34961 8.60039L6.44961 4.40039ZM7.54961 22.9504H6.29961V21.1004H5.74961V22.9504H4.44961L5.99961 19.6504L7.54961 22.9504ZM5.99961 17.6004L5.59961 16.4504H6.39961L5.99961 17.6004ZM6.39961 15.5504H5.59961L5.99961 14.4004L6.39961 15.5504ZM5.99961 12.4004L4.44961 9.10039H5.69961V10.9504H6.24961V9.10039H7.49961L5.99961 12.4004Z" fill="#FFE62E"/>
</svg>
