<svg width="85" height="85" viewBox="0 0 85 85" fill="none" xmlns="http://www.w3.org/2000/svg">
<g filter="url(#filter0_d_312_7432)">
<path d="M50.5474 46.1488C50.5474 46.5838 50.4507 47.0309 50.2453 47.4659C50.0399 47.9009 49.7741 48.3117 49.4237 48.6984C48.8316 49.3509 48.1791 49.8222 47.442 50.1243C46.717 50.4263 45.9316 50.5834 45.0857 50.5834C43.8532 50.5834 42.5362 50.2934 41.1466 49.7013C39.757 49.1092 38.3674 48.3118 36.9899 47.3088C35.6003 46.2938 34.2832 45.1701 33.0266 43.9255C31.782 42.6688 30.6582 41.3517 29.6553 39.9742C28.6645 38.5967 27.867 37.2192 27.287 35.8538C26.707 34.4763 26.417 33.1592 26.417 31.9026C26.417 31.0809 26.562 30.2955 26.852 29.5705C27.142 28.8334 27.6012 28.1567 28.2416 27.5526C29.0149 26.7913 29.8607 26.4167 30.7549 26.4167C31.0932 26.4167 31.4316 26.4892 31.7337 26.6342C32.0478 26.7792 32.3257 26.9967 32.5432 27.3109L35.3466 31.2622C35.5641 31.5642 35.7212 31.8422 35.8299 32.108C35.9387 32.3617 35.9991 32.6155 35.9991 32.8451C35.9991 33.1351 35.9145 33.4251 35.7453 33.703C35.5882 33.9809 35.3587 34.2709 35.0687 34.5609L34.1503 35.5155C34.0174 35.6484 33.957 35.8055 33.957 35.9988C33.957 36.0955 33.9691 36.1801 33.9932 36.2767C34.0295 36.3734 34.0657 36.4459 34.0899 36.5184C34.3074 36.9172 34.682 37.4367 35.2137 38.0651C35.7574 38.6934 36.3374 39.3338 36.9657 39.9742C37.6182 40.6147 38.2466 41.2067 38.887 41.7505C39.5153 42.2822 40.0349 42.6447 40.4457 42.8622C40.5062 42.8863 40.5787 42.9226 40.6632 42.9588C40.7599 42.9951 40.8566 43.0072 40.9653 43.0072C41.1707 43.0072 41.3278 42.9347 41.4607 42.8017L42.3791 41.8955C42.6812 41.5934 42.9712 41.3638 43.2491 41.2188C43.527 41.0497 43.8049 40.9651 44.107 40.9651C44.3366 40.9651 44.5782 41.0134 44.8441 41.1222C45.1099 41.2309 45.3878 41.388 45.6899 41.5934L49.6895 44.433C50.0037 44.6505 50.2212 44.9042 50.3541 45.2063C50.4749 45.5084 50.5474 45.8105 50.5474 46.1488Z" fill="#0199E4"/>
</g>
<defs>
<filter id="filter0_d_312_7432" x="0.416992" y="0.416748" width="84.1309" height="84.1667" filterUnits="userSpaceOnUse" color-interpolation-filters="sRGB">
<feFlood flood-opacity="0" result="BackgroundImageFix"/>
<feColorMatrix in="SourceAlpha" type="matrix" values="0 0 0 0 0 0 0 0 0 0 0 0 0 0 0 0 0 0 127 0" result="hardAlpha"/>
<feOffset dx="4" dy="4"/>
<feGaussianBlur stdDeviation="15"/>
<feComposite in2="hardAlpha" operator="out"/>
<feColorMatrix type="matrix" values="0 0 0 0 0.56298 0 0 0 0 1 0 0 0 0 0.219608 0 0 0 0.4 0"/>
<feBlend mode="normal" in2="BackgroundImageFix" result="effect1_dropShadow_312_7432"/>
<feBlend mode="normal" in="SourceGraphic" in2="effect1_dropShadow_312_7432" result="shape"/>
</filter>
</defs>
</svg>
