<svg width="21" height="18" viewBox="0 0 21 18" fill="none" xmlns="http://www.w3.org/2000/svg">
<path d="M19.4987 0.694991C16.5371 0.840883 14.802 1.79607 13.1931 3.54028C10.4646 6.49818 11.0793 9.17528 11.0794 13.1753C11.0792 15.6605 13.0939 17.6753 15.5791 17.6753H16.5793C18.6504 17.6753 20.3294 15.9963 20.3293 13.9253C20.3293 11.8542 18.6504 10.1753 16.5793 10.1753H15.4067C15.3134 10.1753 15.2371 10.0979 15.2207 10.0061C15.0863 9.25466 14.1405 7.51913 15.3293 5.67528C16.2061 4.31537 17.9177 3.11415 19.9332 3.97443C20.3597 4.15646 20.9165 3.80678 20.831 3.35104L20.4823 1.49099C20.3936 1.01802 19.9794 0.671315 19.4987 0.694991Z" fill="#C4C4C4"/>
<path d="M8.49875 0.694991C5.53711 0.840883 3.80201 1.79607 2.19312 3.54028C-0.535413 6.49818 0.0793191 9.17528 0.0793672 13.1753C0.0792361 15.6605 2.09388 17.6753 4.57913 17.6753H5.57934C7.65042 17.6753 9.32936 15.9963 9.32934 13.9253C9.32933 11.8542 7.6504 10.1753 5.57934 10.1753H4.4067C4.31339 10.1753 4.23715 10.0979 4.22072 10.0061C4.08632 9.25466 3.14049 7.51913 4.32932 5.67528C5.20613 4.31537 6.9177 3.11415 8.93324 3.97443C9.35971 4.15646 9.91648 3.80678 9.83102 3.35104L9.48227 1.49099C9.39358 1.01802 8.97938 0.671315 8.49875 0.694991Z" fill="#C4C4C4"/>
</svg>
