<svg width="17" height="20" viewBox="0 0 17 20" fill="none" xmlns="http://www.w3.org/2000/svg">
<path d="M12 9.99707C12 10.196 11.921 10.3867 11.7803 10.5274C11.6397 10.6681 11.4489 10.7471 11.25 10.7471C11.0511 10.7471 10.8603 10.6681 10.7197 10.5274C10.579 10.3867 10.5 10.196 10.5 9.99707C10.5 9.79816 10.579 9.60739 10.7197 9.46674C10.8603 9.32609 11.0511 9.24707 11.25 9.24707C11.4489 9.24707 11.6397 9.32609 11.7803 9.46674C11.921 9.60739 12 9.79816 12 9.99707Z" fill="#BDC4DC"/>
<path d="M8.397 1.01504C8.28823 0.993295 8.176 0.995951 8.06838 1.02281C7.96076 1.04967 7.86044 1.10007 7.77465 1.17037C7.68885 1.24067 7.61972 1.32912 7.57223 1.42936C7.52474 1.52959 7.50007 1.63912 7.5 1.75004V18.2455C7.50007 18.3565 7.52474 18.466 7.57223 18.5662C7.61972 18.6664 7.68885 18.7549 7.77465 18.8252C7.86044 18.8955 7.96076 18.9459 8.06838 18.9728C8.176 18.9996 8.28823 19.0023 8.397 18.9805L15.897 17.4805C16.067 17.4466 16.2199 17.3548 16.3298 17.2208C16.4398 17.0868 16.4999 16.9189 16.5 16.7455V3.25004C16.4999 3.07672 16.4398 2.90878 16.3298 2.77479C16.2199 2.64079 16.067 2.54901 15.897 2.51504L8.397 1.01504ZM9 17.3305V2.66504L15 3.86504V16.1305L9 17.3305Z" fill="#BDC4DC" stroke="#BDC4DC" stroke-width="0.3"/>
<path d="M5 17.4955V15.9955H2V4H5V2.5H1.25C1.05109 2.5 0.860322 2.57902 0.71967 2.71967C0.579018 2.86032 0.5 3.05109 0.5 3.25V16.7455C0.5 16.9444 0.579018 17.1352 0.71967 17.2758C0.860322 17.4165 1.05109 17.4955 1.25 17.4955H5Z" fill="#BDC4DC" stroke="#BDC4DC" stroke-width="0.3"/>
</svg>
