<svg width="26" height="16" viewBox="0 0 26 16" fill="none" xmlns="http://www.w3.org/2000/svg">
<path fill-rule="evenodd" clip-rule="evenodd" d="M25.0919 1.36399C25.2696 0.779757 25.0919 0.349609 24.2413 0.349609H21.4325C20.7177 0.349609 20.3881 0.720906 20.2094 1.13072C20.2094 1.13072 18.781 4.5505 16.7576 6.77186C16.1027 7.41601 15.8052 7.62039 15.4479 7.62039C15.2692 7.62039 15.0006 7.41601 15.0006 6.83071V1.36399C15.0006 0.662055 14.8037 0.349609 14.2088 0.349609H9.79174C9.34554 0.349609 9.07697 0.674895 9.07697 0.98413C9.07697 1.64861 10.0892 1.80269 10.193 3.67309V7.73702C10.193 8.62834 10.0293 8.78992 9.6719 8.78992C8.71958 8.78992 6.40299 5.35409 5.02802 1.42284C4.76158 0.657775 4.49194 0.349609 3.77396 0.349609H0.963017C0.160503 0.349609 0 0.720906 0 1.13072C0 1.86048 0.952317 5.4857 4.43523 10.2805C6.75717 13.5547 10.0261 15.3299 13.0039 15.3299C14.7898 15.3299 15.0102 14.9361 15.0102 14.2566V11.7817C15.0102 10.9931 15.1793 10.8358 15.7453 10.8358C16.1626 10.8358 16.8763 11.0412 18.5434 12.6195C20.4481 14.491 20.7616 15.3299 21.8337 15.3299H24.6425C25.445 15.3299 25.8474 14.9361 25.6162 14.1571C25.3616 13.3824 24.4521 12.2578 23.2462 10.9235C22.5913 10.1638 21.609 9.34526 21.3105 8.93544C20.8943 8.41006 21.013 8.17573 21.3105 7.70813C21.3105 7.70813 24.7346 2.97223 25.0909 1.36399H25.0919Z" fill="#CFCFE4"/>
</svg>
