<svg width="28" height="20" viewBox="0 0 28 20" fill="none" xmlns="http://www.w3.org/2000/svg">
<path d="M27.4153 3.74105C27.2591 3.18399 26.955 2.67965 26.5351 2.28166C26.1033 1.87142 25.5742 1.57798 24.9975 1.42901C22.8395 0.86019 14.1935 0.860191 14.1935 0.860191C10.589 0.819181 6.9855 0.99955 3.40319 1.40028C2.82654 1.56025 2.29838 1.86026 1.86566 2.27361C1.44048 2.6827 1.13252 3.18717 0.971638 3.7399C0.58518 5.82182 0.397412 7.93575 0.410865 10.0532C0.397076 12.1687 0.584383 14.282 0.971638 16.3665C1.12907 16.9169 1.43588 17.4191 1.86221 17.8247C2.28854 18.2304 2.81943 18.5234 3.40319 18.6785C5.58997 19.2462 14.1935 19.2462 14.1935 19.2462C17.8025 19.2873 21.4106 19.1069 24.9975 18.7061C25.5742 18.5571 26.1033 18.2637 26.5351 17.8534C26.9602 17.4478 27.2625 16.9433 27.4142 16.3941C27.8107 14.3129 28.0035 12.1981 27.9899 10.0796C28.0197 7.95213 27.8271 5.82736 27.4153 3.7399V3.74105ZM11.4448 13.9878V6.11973L18.6383 10.0543L11.4448 13.9878Z" fill="#CFCFE4"/>
</svg>
