<svg width="22" height="16" viewBox="0 0 22 16" fill="none" xmlns="http://www.w3.org/2000/svg">
<path d="M21.6465 2.561C20.877 2.86604 20.0504 3.07215 19.1813 3.16532C20.078 2.68532 20.7488 1.92986 21.0687 1.0399C20.2262 1.48756 19.3042 1.80267 18.3427 1.97152C17.6961 1.3539 16.8397 0.944529 15.9064 0.806969C14.9731 0.669408 14.0152 0.811353 13.1813 1.21076C12.3474 1.61018 11.6843 2.24471 11.2948 3.01585C10.9053 3.78699 10.8113 4.65158 11.0274 5.47541C9.32041 5.39874 7.6505 5.00181 6.12607 4.31039C4.60163 3.61898 3.25673 2.64852 2.17866 1.46201C1.81004 2.03088 1.59808 2.69044 1.59808 3.39286C1.59767 4.02521 1.77173 4.64787 2.10482 5.2056C2.43791 5.76333 2.91974 6.23888 3.50754 6.59006C2.82584 6.57066 2.15919 6.40587 1.56306 6.10941V6.15888C1.56299 7.04577 1.90591 7.90536 2.53362 8.59181C3.16134 9.27826 4.03519 9.74928 5.00691 9.92494C4.37452 10.0781 3.71151 10.1006 3.06796 9.9909C3.34212 10.754 3.87616 11.4213 4.59531 11.8994C5.31447 12.3775 6.18273 12.6425 7.07856 12.6572C5.55784 13.7252 3.67977 14.3045 1.74645 14.3019C1.40398 14.302 1.0618 14.2841 0.72168 14.2483C2.68411 15.3771 4.96852 15.9762 7.30158 15.9739C15.1993 15.9739 19.5168 10.122 19.5168 5.0467C19.5168 4.88181 19.5122 4.71527 19.5039 4.55038C20.3437 4.00705 21.0686 3.33424 21.6446 2.56347L21.6465 2.561Z" fill="#CFCFE4"/>
</svg>
