<svg width="22" height="22" viewBox="0 0 22 22" fill="none" xmlns="http://www.w3.org/2000/svg">
<path d="M10.8356 7.8758C8.91446 7.8758 7.34668 9.4436 7.34668 11.3647C7.34668 13.2859 8.91446 14.8537 10.8356 14.8537C12.7567 14.8537 14.3245 13.2859 14.3245 11.3647C14.3245 9.4436 12.7567 7.8758 10.8356 7.8758ZM21.2996 11.3647C21.2996 9.91996 21.3127 8.48826 21.2316 7.04609C21.1504 5.37097 20.7683 3.88431 19.5434 2.65938C18.3159 1.43183 16.8319 1.05231 15.1568 0.971174C13.712 0.890035 12.2803 0.903122 10.8382 0.903122C9.39342 0.903122 7.96175 0.890035 6.51961 0.971174C4.84452 1.05231 3.35788 1.43445 2.13298 2.65938C0.905454 3.88692 0.525942 5.37097 0.444805 7.04609C0.363668 8.49088 0.376755 9.92258 0.376755 11.3647C0.376755 12.8069 0.363668 14.2412 0.444805 15.6834C0.525942 17.3585 0.908071 18.8452 2.13298 20.0701C3.3605 21.2977 4.84452 21.6772 6.51961 21.7583C7.96437 21.8395 9.39604 21.8264 10.8382 21.8264C12.2829 21.8264 13.7146 21.8395 15.1568 21.7583C16.8319 21.6772 18.3185 21.2951 19.5434 20.0701C20.7709 18.8426 21.1504 17.3585 21.2316 15.6834C21.3153 14.2412 21.2996 12.8095 21.2996 11.3647ZM10.8356 16.733C7.86491 16.733 5.46744 14.3355 5.46744 11.3647C5.46744 8.39403 7.86491 5.99652 10.8356 5.99652C13.8062 5.99652 16.2037 8.39403 16.2037 11.3647C16.2037 14.3355 13.8062 16.733 10.8356 16.733ZM16.4236 7.03039C15.73 7.03039 15.1699 6.47027 15.1699 5.77666C15.1699 5.08306 15.73 4.52294 16.4236 4.52294C17.1171 4.52294 17.6772 5.08306 17.6772 5.77666C17.6775 5.94136 17.6452 6.10449 17.5822 6.25669C17.5193 6.40889 17.427 6.54718 17.3105 6.66364C17.1941 6.7801 17.0558 6.87244 16.9036 6.93537C16.7514 6.9983 16.5882 7.03059 16.4236 7.03039Z" fill="#CFCFE4"/>
</svg>
