<svg width="21" height="21" viewBox="0 0 21 21" fill="none" xmlns="http://www.w3.org/2000/svg">
<path d="M4.92828 20.876H0.78731V7.54074H4.92828V20.876ZM2.8553 5.72171C1.53133 5.72171 0.457031 4.62458 0.457031 3.30061C0.457031 2.66455 0.709705 2.05454 1.15947 1.60478C1.60923 1.15502 2.21924 0.902344 2.8553 0.902344C3.49136 0.902344 4.10137 1.15502 4.55113 1.60478C5.00089 2.05454 5.25357 2.66455 5.25357 3.30061C5.25357 4.62458 4.17927 5.72171 2.8553 5.72171ZM20.4264 20.876H16.2947V14.3846C16.2947 12.8373 16.2633 10.8535 14.1419 10.8535C11.989 10.8535 11.6587 12.5342 11.6587 14.2733V20.876H7.52201V7.54074H11.4932V9.35977H11.551C12.1038 8.31187 13.4542 7.20618 15.4687 7.20618C19.6596 7.20618 20.43 9.96612 20.43 13.5507V20.876H20.4264Z" fill="#CFCFE4"/>
</svg>
