<svg width="22" height="22" viewBox="0 0 22 22" fill="none" xmlns="http://www.w3.org/2000/svg">
<path d="M10.8346 7.28351C8.91348 7.28351 7.3457 8.85383 7.3457 10.7781C7.3457 12.7023 8.91348 14.2726 10.8346 14.2726C12.7557 14.2726 14.3235 12.7023 14.3235 10.7781C14.3235 8.85383 12.7557 7.28351 10.8346 7.28351ZM21.2986 10.7781C21.2986 9.33096 21.3117 7.89696 21.2306 6.45246C21.1495 4.77465 20.7673 3.28559 19.5424 2.05869C18.3149 0.829167 16.8309 0.449038 15.1558 0.367769C13.711 0.2865 12.2794 0.299608 10.8372 0.299608C9.39245 0.299608 7.96077 0.2865 6.51863 0.367769C4.84354 0.449038 3.35691 0.831789 2.132 2.05869C0.904477 3.28821 0.524966 4.77465 0.443829 6.45246C0.362692 7.89958 0.375779 9.33358 0.375779 10.7781C0.375779 12.2226 0.362692 13.6592 0.443829 15.1037C0.524966 16.7815 0.907095 18.2706 2.132 19.4975C3.35952 20.727 4.84354 21.1071 6.51863 21.1884C7.96339 21.2697 9.39506 21.2565 10.8372 21.2565C12.282 21.2565 13.7136 21.2697 15.1558 21.1884C16.8309 21.1071 18.3175 20.7244 19.5424 19.4975C20.7699 18.2679 21.1495 16.7815 21.2306 15.1037C21.3143 13.6592 21.2986 12.2252 21.2986 10.7781ZM10.8346 16.1549C7.86393 16.1549 5.46647 13.7536 5.46647 10.7781C5.46647 7.80258 7.86393 5.40121 10.8346 5.40121C13.8052 5.40121 16.2027 7.80258 16.2027 10.7781C16.2027 13.7536 13.8052 16.1549 10.8346 16.1549ZM16.4226 6.43673C15.729 6.43673 15.1689 5.87572 15.1689 5.181C15.1689 4.48628 15.729 3.92526 16.4226 3.92526C17.1162 3.92526 17.6763 4.48628 17.6763 5.181C17.6765 5.34596 17.6442 5.50934 17.5813 5.66179C17.5183 5.81424 17.426 5.95275 17.3095 6.0694C17.1931 6.18605 17.0548 6.27854 16.9026 6.34157C16.7504 6.4046 16.5873 6.43694 16.4226 6.43673Z" fill="#F00073"/>
</svg>
