<svg width="28" height="19" viewBox="0 0 28 19" fill="none" xmlns="http://www.w3.org/2000/svg">
<path d="M27.4153 3.14315C27.2591 2.58519 26.9549 2.08005 26.5351 1.68141C26.1033 1.27052 25.5742 0.9766 24.9975 0.827392C22.8395 0.257661 14.1935 0.257661 14.1935 0.257661C10.589 0.216585 6.9855 0.397244 3.40319 0.798618C2.82654 0.958849 2.29838 1.25934 1.86566 1.67336C1.44048 2.0831 1.13252 2.58838 0.971638 3.142C0.58518 5.22727 0.397412 7.3446 0.410865 9.46545C0.397076 11.5844 0.584383 13.701 0.971638 15.7889C1.12907 16.3402 1.43588 16.8432 1.86221 17.2495C2.28854 17.6558 2.81943 17.9493 3.40319 18.1047C5.58997 18.6732 14.1935 18.6732 14.1935 18.6732C17.8025 18.7144 21.4106 18.5337 24.9975 18.1323C25.5742 17.9831 26.1033 17.6891 26.5351 17.2783C26.9602 16.872 27.2625 16.3667 27.4141 15.8165C27.8107 13.7321 28.0035 11.6138 27.9899 9.49192C28.0197 7.36101 27.8271 5.23282 27.4153 3.142V3.14315ZM11.4448 13.4064V5.52567L18.6383 9.4666L11.4448 13.4064Z" fill="#FF0000"/>
</svg>
