<svg width="22" height="16" viewBox="0 0 22 16" fill="none" xmlns="http://www.w3.org/2000/svg">
<path d="M21.6475 1.96526C20.878 2.27079 20.0513 2.47723 19.1823 2.57054C20.079 2.08978 20.7498 1.33311 21.0696 0.441718C20.2272 0.890101 19.3052 1.20571 18.3437 1.37483C17.6971 0.756224 16.8407 0.346199 15.9074 0.208418C14.9741 0.0706369 14.0162 0.212809 13.1823 0.612861C12.3484 1.01291 11.6853 1.64846 11.2958 2.42084C10.9063 3.19321 10.8123 4.05919 11.0284 4.88434C9.32139 4.80754 7.65148 4.40998 6.12704 3.71746C4.6026 3.02493 3.2577 2.05292 2.17963 0.864511C1.81101 1.43429 1.59905 2.0949 1.59905 2.79846C1.59864 3.43181 1.7727 4.05547 2.1058 4.6141C2.43889 5.17272 2.92071 5.64903 3.50851 6.00078C2.82682 5.98134 2.16016 5.81629 1.56404 5.51936V5.5689C1.56397 6.45721 1.90688 7.31819 2.5346 8.00574C3.16232 8.69328 4.03617 9.16506 5.00788 9.341C4.3755 9.49436 3.71249 9.51695 3.06893 9.40707C3.34309 10.1714 3.87713 10.8398 4.59629 11.3187C5.31544 11.7975 6.18371 12.0629 7.07954 12.0776C5.55882 13.1473 3.68074 13.7275 1.74742 13.725C1.40496 13.7251 1.06278 13.7072 0.722656 13.6713C2.68508 14.8019 4.96949 15.402 7.30255 15.3997C15.2003 15.3997 19.5178 9.53836 19.5178 4.45494C19.5178 4.28979 19.5131 4.12298 19.5048 3.95783C20.3447 3.41363 21.0696 2.73974 21.6456 1.96773L21.6475 1.96526Z" fill="#1DA1F2"/>
</svg>
