<svg width="26" height="16" viewBox="0 0 26 16" fill="none" xmlns="http://www.w3.org/2000/svg">
<path fill-rule="evenodd" clip-rule="evenodd" d="M25.0919 1.76796C25.2696 1.18279 25.0919 0.751953 24.2413 0.751953H21.4325C20.7177 0.751953 20.3881 1.12385 20.2094 1.53432C20.2094 1.53432 18.781 4.95959 16.7576 7.18452C16.1027 7.8297 15.8052 8.0344 15.4479 8.0344C15.2692 8.0344 15.0006 7.8297 15.0006 7.24346V1.76796C15.0006 1.0649 14.8037 0.751953 14.2088 0.751953H9.79174C9.34554 0.751953 9.07697 1.07776 9.07697 1.38749C9.07697 2.05304 10.0892 2.20737 10.193 4.08077V8.15122C10.193 9.04398 10.0293 9.20581 9.6719 9.20581C8.71958 9.20581 6.40299 5.76446 5.02802 1.8269C4.76158 1.06061 4.49194 0.751953 3.77396 0.751953H0.963017C0.160503 0.751953 0 1.12385 0 1.53432C0 2.26525 0.952317 5.89629 4.43523 10.6987C6.75717 13.9783 10.0261 15.7563 13.0039 15.7563C14.7898 15.7563 15.0102 15.3619 15.0102 14.6813V12.2024C15.0102 11.4125 15.1793 11.255 15.7453 11.255C16.1626 11.255 16.8763 11.4607 18.5434 13.0416C20.4481 14.916 20.7616 15.7563 21.8337 15.7563H24.6425C25.445 15.7563 25.8474 15.3619 25.6162 14.5816C25.3616 13.8057 24.4521 12.6793 23.2462 11.3429C22.5913 10.5819 21.609 9.76204 21.3105 9.35157C20.8943 8.82535 21.013 8.59063 21.3105 8.12229C21.3105 8.12229 24.7346 3.37878 25.0909 1.76796H25.0919Z" fill="#0077FF"/>
</svg>
