<svg width="21" height="21" viewBox="0 0 21 21" fill="none" xmlns="http://www.w3.org/2000/svg">
<path d="M4.92828 20.3048H0.78731V6.94797H4.92828V20.3048ZM2.8553 5.12599C1.53133 5.12599 0.457031 4.02709 0.457031 2.70098C0.457031 2.06389 0.709705 1.45289 1.15947 1.0024C1.60923 0.551911 2.21924 0.298828 2.8553 0.298828C3.49136 0.298828 4.10137 0.551911 4.55113 1.0024C5.00089 1.45289 5.25357 2.06389 5.25357 2.70098C5.25357 4.02709 4.17927 5.12599 2.8553 5.12599ZM20.4264 20.3048H16.2947V13.8029C16.2947 12.2531 16.2633 10.2661 14.1419 10.2661C11.989 10.2661 11.6587 11.9495 11.6587 13.6914V20.3048H7.52201V6.94797H11.4932V8.76995H11.551C12.1038 7.72034 13.4542 6.61287 15.4687 6.61287C19.6596 6.61287 20.43 9.37727 20.43 12.9676V20.3048H20.4264Z" fill="#2867B2"/>
</svg>
