<svg width="20" height="23" viewBox="0 0 20 23" fill="none" xmlns="http://www.w3.org/2000/svg">
<path d="M11.9821 21.1289C11.9821 21.6812 12.4298 22.1289 12.9821 22.1289C13.5344 22.1289 13.9821 21.6812 13.9821 21.1289H11.9821ZM17.3851 5.12612C17.3851 5.6784 17.8328 6.12612 18.3851 6.12612C18.9374 6.12612 19.3851 5.6784 19.3851 5.12612H17.3851ZM18.3575 3.34142L17.3778 3.54225V3.54225L18.3575 3.34142ZM0.763672 21.0877C0.763672 21.6399 1.21139 22.0877 1.76367 22.0877C2.31596 22.0877 2.76367 21.6399 2.76367 21.0877H0.763672ZM6.16668 5.08487C6.16668 5.63716 6.61439 6.08487 7.16668 6.08487C7.71896 6.08487 8.16668 5.63716 8.16668 5.08487H6.16668ZM7.13901 3.30017L6.15939 3.501L6.15939 3.50101L7.13901 3.30017ZM17.3851 3.61408V5.12612H19.3851V3.61408H17.3851ZM17.3778 3.54225C17.3827 3.56588 17.3851 3.58995 17.3851 3.61408H19.3851C19.3851 3.45504 19.369 3.2964 19.3371 3.14059L17.3778 3.54225ZM13.9821 3.88674C13.9821 1.81992 16.9628 1.51753 17.3778 3.54225L19.3371 3.14059C18.438 -1.24485 11.9821 -0.589915 11.9821 3.88674H13.9821ZM6.16668 3.57284V5.08487H8.16668V3.57284H6.16668ZM6.15939 3.50101C6.16423 3.52464 6.16668 3.54871 6.16668 3.57284H8.16668C8.16668 3.41379 8.15058 3.25515 8.11864 3.09934L6.15939 3.50101ZM2.76367 3.8455C2.76367 1.77868 5.7443 1.47628 6.15939 3.501L8.11864 3.09934C7.21959 -1.28609 0.763672 -0.631159 0.763672 3.8455H2.76367ZM2.76367 11.189V3.8455H0.763672V11.189H2.76367ZM13.9821 11.189V3.88674H11.9821V11.189H13.9821ZM1.76367 12.189H12.9821V10.189H1.76367V12.189ZM13.9821 21.1289V16.159H11.9821V21.1289H13.9821ZM13.9821 16.159V11.189H11.9821V16.159H13.9821ZM2.76367 21.0877V16.159H0.763672V21.0877H2.76367ZM2.76367 16.159V11.189H0.763672V16.159H2.76367ZM12.9821 15.159H1.76367V17.159H12.9821V15.159Z" fill="#BDC4DC"/>
</svg>
