<svg width="22" height="16" viewBox="0 0 22 16" fill="none" xmlns="http://www.w3.org/2000/svg">
<path d="M22.0005 1.89789C21.1915 2.21861 20.3223 2.43531 19.4087 2.53326C20.3514 2.0286 21.0567 1.23432 21.393 0.298631C20.5073 0.769299 19.5379 1.1006 18.527 1.27812C17.8472 0.628768 16.9467 0.198364 15.9655 0.0537355C14.9842 -0.0908933 13.9771 0.0583448 13.1003 0.47828C12.2236 0.898215 11.5264 1.56535 11.1169 2.37611C10.7074 3.18688 10.6086 4.0959 10.8358 4.96206C9.04106 4.88144 7.28534 4.46412 5.68257 3.73718C4.0798 3.01023 2.6658 1.98991 1.53233 0.742437C1.14477 1.34053 0.921919 2.03398 0.921919 2.7725C0.921486 3.43734 1.10449 4.09199 1.4547 4.67838C1.80491 5.26477 2.31149 5.76476 2.92949 6.13398C2.21277 6.11358 1.51186 5.94032 0.8851 5.62863V5.68064C0.885028 6.6131 1.24557 7.51687 1.90554 8.23859C2.56551 8.96031 3.48426 9.45553 4.50591 9.64022C3.84103 9.8012 3.14395 9.82491 2.46733 9.70957C2.75557 10.5119 3.31705 11.2135 4.07316 11.7162C4.82927 12.2188 5.74215 12.4974 6.68401 12.5128C5.08515 13.6357 3.11057 14.2448 1.07791 14.2421C0.717849 14.2422 0.358089 14.2234 0.000488281 14.1858C2.06375 15.3726 4.46554 16.0024 6.91848 16C15.222 16 19.7613 9.84739 19.7613 4.51132C19.7613 4.33796 19.7565 4.16286 19.7478 3.9895C20.6307 3.41825 21.3929 2.71087 21.9986 1.90049L22.0005 1.89789Z" fill="#1897D6"/>
</svg>
