<svg width="29" height="23" viewBox="0 0 29 23" fill="none" xmlns="http://www.w3.org/2000/svg">
<path d="M9.09834 23C19.7775 23 25.6201 14.1503 25.6201 6.4782C25.6201 6.22942 25.6146 5.9751 25.6036 5.72631C26.7401 4.90436 27.721 3.88625 28.5 2.71983C27.4415 3.19079 26.3176 3.49837 25.1668 3.63206C26.3785 2.90573 27.2858 1.76469 27.7205 0.420471C26.5805 1.09605 25.3339 1.5726 24.034 1.82972C23.1581 0.899082 22.0001 0.282888 20.7389 0.0764084C19.4777 -0.130071 18.1836 0.0846638 17.0567 0.687414C15.9298 1.29016 15.0329 2.24736 14.5045 3.411C13.9762 4.57465 13.8459 5.87994 14.1338 7.12506C11.8256 7.00923 9.5675 6.40961 7.50589 5.36509C5.44427 4.32057 3.62518 2.85445 2.16653 1.06179C1.42517 2.33999 1.19831 3.85251 1.53206 5.29196C1.86582 6.7314 2.73513 7.98976 3.96334 8.81129C3.04128 8.78202 2.13941 8.53376 1.33226 8.08704V8.15891C1.33143 9.50028 1.79516 10.8005 2.64461 11.8387C3.49406 12.8768 4.67681 13.5887 5.9918 13.8534C5.13765 14.0871 4.24119 14.1212 3.37178 13.9529C3.74284 15.1065 4.4648 16.1155 5.4369 16.839C6.40899 17.5625 7.58272 17.9645 8.79427 17.9888C6.73741 19.6045 4.1966 20.4809 1.58105 20.4767C1.1172 20.476 0.653813 20.4476 0.193359 20.3916C2.85048 22.0963 5.94141 23.0016 9.09834 23Z" fill="#BDC4DC"/>
</svg>
