<svg width="24" height="23" viewBox="0 0 24 23" fill="none" xmlns="http://www.w3.org/2000/svg">
<path fill-rule="evenodd" clip-rule="evenodd" d="M2.11383 1.61383C0.5 3.22767 0.5 5.8259 0.5 11.0208V11.9792C0.5 17.1733 0.5 19.7723 2.11383 21.3862C3.72767 23 6.3259 23 11.5208 23H12.4792C17.6733 23 20.2723 23 21.8862 21.3862C23.5 19.7723 23.5 17.1741 23.5 11.9792V11.0208C23.5 5.82667 23.5 3.22767 21.8862 1.61383C20.2723 0 17.6741 0 12.4792 0H11.5208C6.32667 0 3.72767 0 2.11383 1.61383ZM5.05246 7.1875H6.72916C7.15772 7.1875 7.31872 7.37533 7.47972 7.83993C8.30006 10.2289 9.68312 12.3173 10.2512 12.3173C10.4651 12.3173 10.5625 12.2191 10.5625 11.6771V9.20767C10.5241 8.50469 10.2785 8.2006 10.0966 7.97538C9.98428 7.83634 9.89626 7.72736 9.89626 7.57313C9.89626 7.3853 10.0565 7.1875 10.3225 7.1875H12.9583C13.3141 7.1875 13.4375 7.37763 13.4375 7.8039V11.1266C13.4375 11.4816 13.5916 11.6066 13.6982 11.6066C13.9113 11.6066 14.0892 11.4816 14.4802 11.0906C15.6884 9.7405 16.541 7.66207 16.541 7.66207C16.6475 7.4129 16.8446 7.1875 17.2708 7.1875H18.9475C19.4551 7.1875 19.5624 7.44893 19.4551 7.8039C19.2419 8.7814 17.1988 11.6595 17.1988 11.6595C17.0209 11.9439 16.9496 12.0857 17.1988 12.4054C17.2867 12.5286 17.4743 12.7125 17.6888 12.9227C17.9081 13.1377 18.1556 13.3803 18.3534 13.6137C19.074 14.4241 19.6168 15.1079 19.7679 15.5787C19.9066 16.0517 19.6667 16.2917 19.1875 16.2917H17.51C17.0609 16.2917 16.835 16.0402 16.3463 15.4963C16.1393 15.2658 15.885 14.9827 15.5466 14.6441C14.5507 13.685 14.1252 13.5608 13.876 13.5608C13.5387 13.5608 13.4375 13.6566 13.4375 14.1358V15.64C13.4375 16.0517 13.3056 16.2917 12.2392 16.2917C10.4628 16.2917 8.51012 15.213 7.12476 13.2227C5.04556 10.3094 4.47746 8.10597 4.47746 7.66207C4.47746 7.4129 4.57329 7.1875 5.05246 7.1875Z" fill="#BDC4DC"/>
</svg>
