<svg width="27" height="17" viewBox="0 0 27 17" fill="none" xmlns="http://www.w3.org/2000/svg">
<path fill-rule="evenodd" clip-rule="evenodd" d="M26.3813 1.6915C26.568 1.07725 26.3813 0.625 25.4869 0.625H22.5338C21.7823 0.625 21.4357 1.01538 21.2479 1.44625C21.2479 1.44625 19.746 5.04175 17.6186 7.37725C16.9301 8.0545 16.6174 8.26937 16.2416 8.26937C16.0538 8.26937 15.7714 8.0545 15.7714 7.43913V1.6915C15.7714 0.9535 15.5644 0.625 14.9389 0.625H10.2949C9.82575 0.625 9.54338 0.967 9.54338 1.29212C9.54338 1.99075 10.6076 2.15275 10.7168 4.11925V8.392C10.7168 9.32913 10.5446 9.499 10.1689 9.499C9.16762 9.499 6.732 5.88662 5.28638 1.75337C5.00625 0.949 4.72275 0.625 3.96788 0.625H1.0125C0.16875 0.625 0 1.01538 0 1.44625C0 2.2135 1.00125 6.025 4.66313 11.0661C7.10437 14.5086 10.5413 16.375 13.6721 16.375C15.5498 16.375 15.7815 15.961 15.7815 15.2466V12.6445C15.7815 11.8154 15.9593 11.65 16.5544 11.65C16.9931 11.65 17.7435 11.866 19.4963 13.5254C21.4988 15.493 21.8284 16.375 22.9556 16.375H25.9088C26.7525 16.375 27.1755 15.961 26.9325 15.142C26.6648 14.3275 25.7085 13.1451 24.4406 11.7423C23.7521 10.9435 22.7194 10.0829 22.4055 9.652C21.9679 9.09963 22.0928 8.85325 22.4055 8.36162C22.4055 8.36162 26.0055 3.38238 26.3801 1.6915H26.3813Z" fill="#206EE3"/>
</svg>
