<svg width="34" height="23" viewBox="0 0 34 23" fill="none" xmlns="http://www.w3.org/2000/svg">
<path d="M32.8763 4.96279C32.8763 4.96279 32.5569 2.70814 31.5733 1.71813C30.3278 0.415163 28.9354 0.408775 28.2967 0.33213C23.7236 -1.82737e-07 16.8574 0 16.8574 0H16.8446C16.8446 0 9.97848 -1.82737e-07 5.4053 0.33213C4.76659 0.408775 3.3742 0.415163 2.12871 1.71813C1.1451 2.70814 0.83213 4.96279 0.83213 4.96279C0.83213 4.96279 0.5 7.61344 0.5 10.2577V12.7359C0.5 15.3802 0.825743 18.0308 0.825743 18.0308C0.825743 18.0308 1.1451 20.2855 2.12233 21.2755C3.36781 22.5784 5.00292 22.5337 5.73105 22.6743C8.34976 22.9234 16.851 23 16.851 23C16.851 23 23.7236 22.9872 28.2967 22.6615C28.9354 22.5848 30.3278 22.5784 31.5733 21.2755C32.5569 20.2855 32.8763 18.0308 32.8763 18.0308C32.8763 18.0308 33.202 15.3866 33.202 12.7359V10.2577C33.202 7.61344 32.8763 4.96279 32.8763 4.96279ZM13.4722 15.7442V6.55318L22.3056 11.1647L13.4722 15.7442Z" fill="#BDC4DC"/>
</svg>
