<svg width="43" height="29" viewBox="0 0 43 29" fill="none" xmlns="http://www.w3.org/2000/svg">
<path d="M42.0829 4.8391C41.8397 3.97138 41.3659 3.18579 40.7118 2.56584C40.0393 1.92683 39.2151 1.46973 38.3168 1.23768C34.9553 0.351649 21.4876 0.35165 21.4876 0.35165C15.873 0.28777 10.2599 0.568727 4.67976 1.19293C3.78154 1.44212 2.95882 1.90944 2.28478 2.55331C1.62249 3.19054 1.14278 3.97634 0.892187 4.83731C0.290209 8.08028 -0.00227405 11.3731 0.0186829 14.6714C-0.00279676 17.9667 0.288968 21.2585 0.892187 24.5055C1.13741 25.3629 1.61533 26.1451 2.27941 26.777C2.94349 27.4088 3.77046 27.8653 4.67976 28.1069C8.08607 28.9911 21.4876 28.9911 21.4876 28.9911C27.1093 29.0551 32.7296 28.7742 38.3168 28.1499C39.2151 27.9178 40.0393 27.4607 40.7118 26.8217C41.3741 26.1898 41.8449 25.404 42.0812 24.5484C42.6988 21.3067 42.9992 18.0125 42.9779 14.7126C43.0244 11.3986 42.7244 8.0889 42.0829 4.83731V4.8391ZM17.206 20.8002V8.54434L28.4112 14.6732L17.206 20.8002Z" fill="#EA2D43"/>
</svg>
